<?xml version="1.0" encoding="utf-8" standalone="no"?>
<!DOCTYPE svg PUBLIC "-//W3C//DTD SVG 1.1//EN"
  "http://www.w3.org/Graphics/SVG/1.1/DTD/svg11.dtd">
<!-- Created with matplotlib (http://matplotlib.org/) -->
<svg height="720pt" version="1.1" viewBox="0 0 1080 720" width="1080pt" xmlns="http://www.w3.org/2000/svg" xmlns:xlink="http://www.w3.org/1999/xlink">
 <defs>
  <style type="text/css">
*{stroke-linecap:butt;stroke-linejoin:round;}
  </style>
 </defs>
 <g id="figure_1">
  <g id="patch_1">
   <path d="M 0 720 
L 1080 720 
L 1080 0 
L 0 0 
z
" style="fill:#ffffff;"/>
  </g>
  <g id="axes_1">
   <g id="patch_2">
    <path d="M 135 630 
L 972 630 
L 972 86.4 
L 135 86.4 
z
" style="fill:#eaeaf2;"/>
   </g>
   <g id="matplotlib.axis_1">
    <g id="xtick_1">
     <g id="line2d_1">
      <path clip-path="url(#pf8e7449104)" d="M 173.045455 630 
L 173.045455 86.4 
" style="fill:none;stroke:#ffffff;stroke-linecap:round;stroke-width:0.8;"/>
     </g>
     <g id="line2d_2"/>
     <g id="text_1">
      <!-- 0 -->
      <defs>
       <path d="M 31.78125 66.40625 
Q 24.171875 66.40625 20.328125 58.90625 
Q 16.5 51.421875 16.5 36.375 
Q 16.5 21.390625 20.328125 13.890625 
Q 24.171875 6.390625 31.78125 6.390625 
Q 39.453125 6.390625 43.28125 13.890625 
Q 47.125 21.390625 47.125 36.375 
Q 47.125 51.421875 43.28125 58.90625 
Q 39.453125 66.40625 31.78125 66.40625 
z
M 31.78125 74.21875 
Q 44.046875 74.21875 50.515625 64.515625 
Q 56.984375 54.828125 56.984375 36.375 
Q 56.984375 17.96875 50.515625 8.265625 
Q 44.046875 -1.421875 31.78125 -1.421875 
Q 19.53125 -1.421875 13.0625 8.265625 
Q 6.59375 17.96875 6.59375 36.375 
Q 6.59375 54.828125 13.0625 64.515625 
Q 19.53125 74.21875 31.78125 74.21875 
z
" id="DejaVuSans-30"/>
      </defs>
      <g style="fill:#262626;" transform="translate(169.864205 641.098438)scale(0.1 -0.1)">
       <use xlink:href="#DejaVuSans-30"/>
      </g>
     </g>
    </g>
    <g id="xtick_2">
     <g id="line2d_3">
      <path clip-path="url(#pf8e7449104)" d="M 289.928571 630 
L 289.928571 86.4 
" style="fill:none;stroke:#ffffff;stroke-linecap:round;stroke-width:0.8;"/>
     </g>
     <g id="line2d_4"/>
     <g id="text_2">
      <!-- 100 -->
      <defs>
       <path d="M 12.40625 8.296875 
L 28.515625 8.296875 
L 28.515625 63.921875 
L 10.984375 60.40625 
L 10.984375 69.390625 
L 28.421875 72.90625 
L 38.28125 72.90625 
L 38.28125 8.296875 
L 54.390625 8.296875 
L 54.390625 0 
L 12.40625 0 
z
" id="DejaVuSans-31"/>
      </defs>
      <g style="fill:#262626;" transform="translate(280.384821 641.098438)scale(0.1 -0.1)">
       <use xlink:href="#DejaVuSans-31"/>
       <use x="63.623047" xlink:href="#DejaVuSans-30"/>
       <use x="127.246094" xlink:href="#DejaVuSans-30"/>
      </g>
     </g>
    </g>
    <g id="xtick_3">
     <g id="line2d_5">
      <path clip-path="url(#pf8e7449104)" d="M 406.811688 630 
L 406.811688 86.4 
" style="fill:none;stroke:#ffffff;stroke-linecap:round;stroke-width:0.8;"/>
     </g>
     <g id="line2d_6"/>
     <g id="text_3">
      <!-- 200 -->
      <defs>
       <path d="M 19.1875 8.296875 
L 53.609375 8.296875 
L 53.609375 0 
L 7.328125 0 
L 7.328125 8.296875 
Q 12.9375 14.109375 22.625 23.890625 
Q 32.328125 33.6875 34.8125 36.53125 
Q 39.546875 41.84375 41.421875 45.53125 
Q 43.3125 49.21875 43.3125 52.78125 
Q 43.3125 58.59375 39.234375 62.25 
Q 35.15625 65.921875 28.609375 65.921875 
Q 23.96875 65.921875 18.8125 64.3125 
Q 13.671875 62.703125 7.8125 59.421875 
L 7.8125 69.390625 
Q 13.765625 71.78125 18.9375 73 
Q 24.125 74.21875 28.421875 74.21875 
Q 39.75 74.21875 46.484375 68.546875 
Q 53.21875 62.890625 53.21875 53.421875 
Q 53.21875 48.921875 51.53125 44.890625 
Q 49.859375 40.875 45.40625 35.40625 
Q 44.1875 33.984375 37.640625 27.21875 
Q 31.109375 20.453125 19.1875 8.296875 
z
" id="DejaVuSans-32"/>
      </defs>
      <g style="fill:#262626;" transform="translate(397.267938 641.098438)scale(0.1 -0.1)">
       <use xlink:href="#DejaVuSans-32"/>
       <use x="63.623047" xlink:href="#DejaVuSans-30"/>
       <use x="127.246094" xlink:href="#DejaVuSans-30"/>
      </g>
     </g>
    </g>
    <g id="xtick_4">
     <g id="line2d_7">
      <path clip-path="url(#pf8e7449104)" d="M 523.694805 630 
L 523.694805 86.4 
" style="fill:none;stroke:#ffffff;stroke-linecap:round;stroke-width:0.8;"/>
     </g>
     <g id="line2d_8"/>
     <g id="text_4">
      <!-- 300 -->
      <defs>
       <path d="M 40.578125 39.3125 
Q 47.65625 37.796875 51.625 33 
Q 55.609375 28.21875 55.609375 21.1875 
Q 55.609375 10.40625 48.1875 4.484375 
Q 40.765625 -1.421875 27.09375 -1.421875 
Q 22.515625 -1.421875 17.65625 -0.515625 
Q 12.796875 0.390625 7.625 2.203125 
L 7.625 11.71875 
Q 11.71875 9.328125 16.59375 8.109375 
Q 21.484375 6.890625 26.8125 6.890625 
Q 36.078125 6.890625 40.9375 10.546875 
Q 45.796875 14.203125 45.796875 21.1875 
Q 45.796875 27.640625 41.28125 31.265625 
Q 36.765625 34.90625 28.71875 34.90625 
L 20.21875 34.90625 
L 20.21875 43.015625 
L 29.109375 43.015625 
Q 36.375 43.015625 40.234375 45.921875 
Q 44.09375 48.828125 44.09375 54.296875 
Q 44.09375 59.90625 40.109375 62.90625 
Q 36.140625 65.921875 28.71875 65.921875 
Q 24.65625 65.921875 20.015625 65.03125 
Q 15.375 64.15625 9.8125 62.3125 
L 9.8125 71.09375 
Q 15.4375 72.65625 20.34375 73.4375 
Q 25.25 74.21875 29.59375 74.21875 
Q 40.828125 74.21875 47.359375 69.109375 
Q 53.90625 64.015625 53.90625 55.328125 
Q 53.90625 49.265625 50.4375 45.09375 
Q 46.96875 40.921875 40.578125 39.3125 
z
" id="DejaVuSans-33"/>
      </defs>
      <g style="fill:#262626;" transform="translate(514.151055 641.098438)scale(0.1 -0.1)">
       <use xlink:href="#DejaVuSans-33"/>
       <use x="63.623047" xlink:href="#DejaVuSans-30"/>
       <use x="127.246094" xlink:href="#DejaVuSans-30"/>
      </g>
     </g>
    </g>
    <g id="xtick_5">
     <g id="line2d_9">
      <path clip-path="url(#pf8e7449104)" d="M 640.577922 630 
L 640.577922 86.4 
" style="fill:none;stroke:#ffffff;stroke-linecap:round;stroke-width:0.8;"/>
     </g>
     <g id="line2d_10"/>
     <g id="text_5">
      <!-- 400 -->
      <defs>
       <path d="M 37.796875 64.3125 
L 12.890625 25.390625 
L 37.796875 25.390625 
z
M 35.203125 72.90625 
L 47.609375 72.90625 
L 47.609375 25.390625 
L 58.015625 25.390625 
L 58.015625 17.1875 
L 47.609375 17.1875 
L 47.609375 0 
L 37.796875 0 
L 37.796875 17.1875 
L 4.890625 17.1875 
L 4.890625 26.703125 
z
" id="DejaVuSans-34"/>
      </defs>
      <g style="fill:#262626;" transform="translate(631.034172 641.098438)scale(0.1 -0.1)">
       <use xlink:href="#DejaVuSans-34"/>
       <use x="63.623047" xlink:href="#DejaVuSans-30"/>
       <use x="127.246094" xlink:href="#DejaVuSans-30"/>
      </g>
     </g>
    </g>
    <g id="xtick_6">
     <g id="line2d_11">
      <path clip-path="url(#pf8e7449104)" d="M 757.461039 630 
L 757.461039 86.4 
" style="fill:none;stroke:#ffffff;stroke-linecap:round;stroke-width:0.8;"/>
     </g>
     <g id="line2d_12"/>
     <g id="text_6">
      <!-- 500 -->
      <defs>
       <path d="M 10.796875 72.90625 
L 49.515625 72.90625 
L 49.515625 64.59375 
L 19.828125 64.59375 
L 19.828125 46.734375 
Q 21.96875 47.46875 24.109375 47.828125 
Q 26.265625 48.1875 28.421875 48.1875 
Q 40.625 48.1875 47.75 41.5 
Q 54.890625 34.8125 54.890625 23.390625 
Q 54.890625 11.625 47.5625 5.09375 
Q 40.234375 -1.421875 26.90625 -1.421875 
Q 22.3125 -1.421875 17.546875 -0.640625 
Q 12.796875 0.140625 7.71875 1.703125 
L 7.71875 11.625 
Q 12.109375 9.234375 16.796875 8.0625 
Q 21.484375 6.890625 26.703125 6.890625 
Q 35.15625 6.890625 40.078125 11.328125 
Q 45.015625 15.765625 45.015625 23.390625 
Q 45.015625 31 40.078125 35.4375 
Q 35.15625 39.890625 26.703125 39.890625 
Q 22.75 39.890625 18.8125 39.015625 
Q 14.890625 38.140625 10.796875 36.28125 
z
" id="DejaVuSans-35"/>
      </defs>
      <g style="fill:#262626;" transform="translate(747.917289 641.098438)scale(0.1 -0.1)">
       <use xlink:href="#DejaVuSans-35"/>
       <use x="63.623047" xlink:href="#DejaVuSans-30"/>
       <use x="127.246094" xlink:href="#DejaVuSans-30"/>
      </g>
     </g>
    </g>
    <g id="xtick_7">
     <g id="line2d_13">
      <path clip-path="url(#pf8e7449104)" d="M 874.344156 630 
L 874.344156 86.4 
" style="fill:none;stroke:#ffffff;stroke-linecap:round;stroke-width:0.8;"/>
     </g>
     <g id="line2d_14"/>
     <g id="text_7">
      <!-- 600 -->
      <defs>
       <path d="M 33.015625 40.375 
Q 26.375 40.375 22.484375 35.828125 
Q 18.609375 31.296875 18.609375 23.390625 
Q 18.609375 15.53125 22.484375 10.953125 
Q 26.375 6.390625 33.015625 6.390625 
Q 39.65625 6.390625 43.53125 10.953125 
Q 47.40625 15.53125 47.40625 23.390625 
Q 47.40625 31.296875 43.53125 35.828125 
Q 39.65625 40.375 33.015625 40.375 
z
M 52.59375 71.296875 
L 52.59375 62.3125 
Q 48.875 64.0625 45.09375 64.984375 
Q 41.3125 65.921875 37.59375 65.921875 
Q 27.828125 65.921875 22.671875 59.328125 
Q 17.53125 52.734375 16.796875 39.40625 
Q 19.671875 43.65625 24.015625 45.921875 
Q 28.375 48.1875 33.59375 48.1875 
Q 44.578125 48.1875 50.953125 41.515625 
Q 57.328125 34.859375 57.328125 23.390625 
Q 57.328125 12.15625 50.6875 5.359375 
Q 44.046875 -1.421875 33.015625 -1.421875 
Q 20.359375 -1.421875 13.671875 8.265625 
Q 6.984375 17.96875 6.984375 36.375 
Q 6.984375 53.65625 15.1875 63.9375 
Q 23.390625 74.21875 37.203125 74.21875 
Q 40.921875 74.21875 44.703125 73.484375 
Q 48.484375 72.75 52.59375 71.296875 
z
" id="DejaVuSans-36"/>
      </defs>
      <g style="fill:#262626;" transform="translate(864.800406 641.098438)scale(0.1 -0.1)">
       <use xlink:href="#DejaVuSans-36"/>
       <use x="63.623047" xlink:href="#DejaVuSans-30"/>
       <use x="127.246094" xlink:href="#DejaVuSans-30"/>
      </g>
     </g>
    </g>
    <g id="text_8">
     <!-- Predicted Salary [Log($)] -->
     <defs>
      <path d="M 19.671875 64.796875 
L 19.671875 37.40625 
L 32.078125 37.40625 
Q 38.96875 37.40625 42.71875 40.96875 
Q 46.484375 44.53125 46.484375 51.125 
Q 46.484375 57.671875 42.71875 61.234375 
Q 38.96875 64.796875 32.078125 64.796875 
z
M 9.8125 72.90625 
L 32.078125 72.90625 
Q 44.34375 72.90625 50.609375 67.359375 
Q 56.890625 61.8125 56.890625 51.125 
Q 56.890625 40.328125 50.609375 34.8125 
Q 44.34375 29.296875 32.078125 29.296875 
L 19.671875 29.296875 
L 19.671875 0 
L 9.8125 0 
z
" id="DejaVuSans-50"/>
      <path d="M 41.109375 46.296875 
Q 39.59375 47.171875 37.8125 47.578125 
Q 36.03125 48 33.890625 48 
Q 26.265625 48 22.1875 43.046875 
Q 18.109375 38.09375 18.109375 28.8125 
L 18.109375 0 
L 9.078125 0 
L 9.078125 54.6875 
L 18.109375 54.6875 
L 18.109375 46.1875 
Q 20.953125 51.171875 25.484375 53.578125 
Q 30.03125 56 36.53125 56 
Q 37.453125 56 38.578125 55.875 
Q 39.703125 55.765625 41.0625 55.515625 
z
" id="DejaVuSans-72"/>
      <path d="M 56.203125 29.59375 
L 56.203125 25.203125 
L 14.890625 25.203125 
Q 15.484375 15.921875 20.484375 11.0625 
Q 25.484375 6.203125 34.421875 6.203125 
Q 39.59375 6.203125 44.453125 7.46875 
Q 49.3125 8.734375 54.109375 11.28125 
L 54.109375 2.78125 
Q 49.265625 0.734375 44.1875 -0.34375 
Q 39.109375 -1.421875 33.890625 -1.421875 
Q 20.796875 -1.421875 13.15625 6.1875 
Q 5.515625 13.8125 5.515625 26.8125 
Q 5.515625 40.234375 12.765625 48.109375 
Q 20.015625 56 32.328125 56 
Q 43.359375 56 49.78125 48.890625 
Q 56.203125 41.796875 56.203125 29.59375 
z
M 47.21875 32.234375 
Q 47.125 39.59375 43.09375 43.984375 
Q 39.0625 48.390625 32.421875 48.390625 
Q 24.90625 48.390625 20.390625 44.140625 
Q 15.875 39.890625 15.1875 32.171875 
z
" id="DejaVuSans-65"/>
      <path d="M 45.40625 46.390625 
L 45.40625 75.984375 
L 54.390625 75.984375 
L 54.390625 0 
L 45.40625 0 
L 45.40625 8.203125 
Q 42.578125 3.328125 38.25 0.953125 
Q 33.9375 -1.421875 27.875 -1.421875 
Q 17.96875 -1.421875 11.734375 6.484375 
Q 5.515625 14.40625 5.515625 27.296875 
Q 5.515625 40.1875 11.734375 48.09375 
Q 17.96875 56 27.875 56 
Q 33.9375 56 38.25 53.625 
Q 42.578125 51.265625 45.40625 46.390625 
z
M 14.796875 27.296875 
Q 14.796875 17.390625 18.875 11.75 
Q 22.953125 6.109375 30.078125 6.109375 
Q 37.203125 6.109375 41.296875 11.75 
Q 45.40625 17.390625 45.40625 27.296875 
Q 45.40625 37.203125 41.296875 42.84375 
Q 37.203125 48.484375 30.078125 48.484375 
Q 22.953125 48.484375 18.875 42.84375 
Q 14.796875 37.203125 14.796875 27.296875 
z
" id="DejaVuSans-64"/>
      <path d="M 9.421875 54.6875 
L 18.40625 54.6875 
L 18.40625 0 
L 9.421875 0 
z
M 9.421875 75.984375 
L 18.40625 75.984375 
L 18.40625 64.59375 
L 9.421875 64.59375 
z
" id="DejaVuSans-69"/>
      <path d="M 48.78125 52.59375 
L 48.78125 44.1875 
Q 44.96875 46.296875 41.140625 47.34375 
Q 37.3125 48.390625 33.40625 48.390625 
Q 24.65625 48.390625 19.8125 42.84375 
Q 14.984375 37.3125 14.984375 27.296875 
Q 14.984375 17.28125 19.8125 11.734375 
Q 24.65625 6.203125 33.40625 6.203125 
Q 37.3125 6.203125 41.140625 7.25 
Q 44.96875 8.296875 48.78125 10.40625 
L 48.78125 2.09375 
Q 45.015625 0.34375 40.984375 -0.53125 
Q 36.96875 -1.421875 32.421875 -1.421875 
Q 20.0625 -1.421875 12.78125 6.34375 
Q 5.515625 14.109375 5.515625 27.296875 
Q 5.515625 40.671875 12.859375 48.328125 
Q 20.21875 56 33.015625 56 
Q 37.15625 56 41.109375 55.140625 
Q 45.0625 54.296875 48.78125 52.59375 
z
" id="DejaVuSans-63"/>
      <path d="M 18.3125 70.21875 
L 18.3125 54.6875 
L 36.8125 54.6875 
L 36.8125 47.703125 
L 18.3125 47.703125 
L 18.3125 18.015625 
Q 18.3125 11.328125 20.140625 9.421875 
Q 21.96875 7.515625 27.59375 7.515625 
L 36.8125 7.515625 
L 36.8125 0 
L 27.59375 0 
Q 17.1875 0 13.234375 3.875 
Q 9.28125 7.765625 9.28125 18.015625 
L 9.28125 47.703125 
L 2.6875 47.703125 
L 2.6875 54.6875 
L 9.28125 54.6875 
L 9.28125 70.21875 
z
" id="DejaVuSans-74"/>
      <path id="DejaVuSans-20"/>
      <path d="M 53.515625 70.515625 
L 53.515625 60.890625 
Q 47.90625 63.578125 42.921875 64.890625 
Q 37.9375 66.21875 33.296875 66.21875 
Q 25.25 66.21875 20.875 63.09375 
Q 16.5 59.96875 16.5 54.203125 
Q 16.5 49.359375 19.40625 46.890625 
Q 22.3125 44.4375 30.421875 42.921875 
L 36.375 41.703125 
Q 47.40625 39.59375 52.65625 34.296875 
Q 57.90625 29 57.90625 20.125 
Q 57.90625 9.515625 50.796875 4.046875 
Q 43.703125 -1.421875 29.984375 -1.421875 
Q 24.8125 -1.421875 18.96875 -0.25 
Q 13.140625 0.921875 6.890625 3.21875 
L 6.890625 13.375 
Q 12.890625 10.015625 18.65625 8.296875 
Q 24.421875 6.59375 29.984375 6.59375 
Q 38.421875 6.59375 43.015625 9.90625 
Q 47.609375 13.234375 47.609375 19.390625 
Q 47.609375 24.75 44.3125 27.78125 
Q 41.015625 30.8125 33.5 32.328125 
L 27.484375 33.5 
Q 16.453125 35.6875 11.515625 40.375 
Q 6.59375 45.0625 6.59375 53.421875 
Q 6.59375 63.09375 13.40625 68.65625 
Q 20.21875 74.21875 32.171875 74.21875 
Q 37.3125 74.21875 42.625 73.28125 
Q 47.953125 72.359375 53.515625 70.515625 
z
" id="DejaVuSans-53"/>
      <path d="M 34.28125 27.484375 
Q 23.390625 27.484375 19.1875 25 
Q 14.984375 22.515625 14.984375 16.5 
Q 14.984375 11.71875 18.140625 8.90625 
Q 21.296875 6.109375 26.703125 6.109375 
Q 34.1875 6.109375 38.703125 11.40625 
Q 43.21875 16.703125 43.21875 25.484375 
L 43.21875 27.484375 
z
M 52.203125 31.203125 
L 52.203125 0 
L 43.21875 0 
L 43.21875 8.296875 
Q 40.140625 3.328125 35.546875 0.953125 
Q 30.953125 -1.421875 24.3125 -1.421875 
Q 15.921875 -1.421875 10.953125 3.296875 
Q 6 8.015625 6 15.921875 
Q 6 25.140625 12.171875 29.828125 
Q 18.359375 34.515625 30.609375 34.515625 
L 43.21875 34.515625 
L 43.21875 35.40625 
Q 43.21875 41.609375 39.140625 45 
Q 35.0625 48.390625 27.6875 48.390625 
Q 23 48.390625 18.546875 47.265625 
Q 14.109375 46.140625 10.015625 43.890625 
L 10.015625 52.203125 
Q 14.9375 54.109375 19.578125 55.046875 
Q 24.21875 56 28.609375 56 
Q 40.484375 56 46.34375 49.84375 
Q 52.203125 43.703125 52.203125 31.203125 
z
" id="DejaVuSans-61"/>
      <path d="M 9.421875 75.984375 
L 18.40625 75.984375 
L 18.40625 0 
L 9.421875 0 
z
" id="DejaVuSans-6c"/>
      <path d="M 32.171875 -5.078125 
Q 28.375 -14.84375 24.75 -17.8125 
Q 21.140625 -20.796875 15.09375 -20.796875 
L 7.90625 -20.796875 
L 7.90625 -13.28125 
L 13.1875 -13.28125 
Q 16.890625 -13.28125 18.9375 -11.515625 
Q 21 -9.765625 23.484375 -3.21875 
L 25.09375 0.875 
L 2.984375 54.6875 
L 12.5 54.6875 
L 29.59375 11.921875 
L 46.6875 54.6875 
L 56.203125 54.6875 
z
" id="DejaVuSans-79"/>
      <path d="M 8.59375 75.984375 
L 29.296875 75.984375 
L 29.296875 69 
L 17.578125 69 
L 17.578125 -6.203125 
L 29.296875 -6.203125 
L 29.296875 -13.1875 
L 8.59375 -13.1875 
z
" id="DejaVuSans-5b"/>
      <path d="M 9.8125 72.90625 
L 19.671875 72.90625 
L 19.671875 8.296875 
L 55.171875 8.296875 
L 55.171875 0 
L 9.8125 0 
z
" id="DejaVuSans-4c"/>
      <path d="M 30.609375 48.390625 
Q 23.390625 48.390625 19.1875 42.75 
Q 14.984375 37.109375 14.984375 27.296875 
Q 14.984375 17.484375 19.15625 11.84375 
Q 23.34375 6.203125 30.609375 6.203125 
Q 37.796875 6.203125 41.984375 11.859375 
Q 46.1875 17.53125 46.1875 27.296875 
Q 46.1875 37.015625 41.984375 42.703125 
Q 37.796875 48.390625 30.609375 48.390625 
z
M 30.609375 56 
Q 42.328125 56 49.015625 48.375 
Q 55.71875 40.765625 55.71875 27.296875 
Q 55.71875 13.875 49.015625 6.21875 
Q 42.328125 -1.421875 30.609375 -1.421875 
Q 18.84375 -1.421875 12.171875 6.21875 
Q 5.515625 13.875 5.515625 27.296875 
Q 5.515625 40.765625 12.171875 48.375 
Q 18.84375 56 30.609375 56 
z
" id="DejaVuSans-6f"/>
      <path d="M 45.40625 27.984375 
Q 45.40625 37.75 41.375 43.109375 
Q 37.359375 48.484375 30.078125 48.484375 
Q 22.859375 48.484375 18.828125 43.109375 
Q 14.796875 37.75 14.796875 27.984375 
Q 14.796875 18.265625 18.828125 12.890625 
Q 22.859375 7.515625 30.078125 7.515625 
Q 37.359375 7.515625 41.375 12.890625 
Q 45.40625 18.265625 45.40625 27.984375 
z
M 54.390625 6.78125 
Q 54.390625 -7.171875 48.1875 -13.984375 
Q 42 -20.796875 29.203125 -20.796875 
Q 24.46875 -20.796875 20.265625 -20.09375 
Q 16.0625 -19.390625 12.109375 -17.921875 
L 12.109375 -9.1875 
Q 16.0625 -11.328125 19.921875 -12.34375 
Q 23.78125 -13.375 27.78125 -13.375 
Q 36.625 -13.375 41.015625 -8.765625 
Q 45.40625 -4.15625 45.40625 5.171875 
L 45.40625 9.625 
Q 42.625 4.78125 38.28125 2.390625 
Q 33.9375 0 27.875 0 
Q 17.828125 0 11.671875 7.65625 
Q 5.515625 15.328125 5.515625 27.984375 
Q 5.515625 40.671875 11.671875 48.328125 
Q 17.828125 56 27.875 56 
Q 33.9375 56 38.28125 53.609375 
Q 42.625 51.21875 45.40625 46.390625 
L 45.40625 54.6875 
L 54.390625 54.6875 
z
" id="DejaVuSans-67"/>
      <path d="M 31 75.875 
Q 24.46875 64.65625 21.28125 53.65625 
Q 18.109375 42.671875 18.109375 31.390625 
Q 18.109375 20.125 21.3125 9.0625 
Q 24.515625 -2 31 -13.1875 
L 23.1875 -13.1875 
Q 15.875 -1.703125 12.234375 9.375 
Q 8.59375 20.453125 8.59375 31.390625 
Q 8.59375 42.28125 12.203125 53.3125 
Q 15.828125 64.359375 23.1875 75.875 
z
" id="DejaVuSans-28"/>
      <path d="M 33.796875 -14.703125 
L 28.90625 -14.703125 
L 28.859375 0 
Q 23.734375 0.09375 18.609375 1.1875 
Q 13.484375 2.296875 8.296875 4.5 
L 8.296875 13.28125 
Q 13.28125 10.15625 18.375 8.5625 
Q 23.484375 6.984375 28.90625 6.9375 
L 28.90625 29.203125 
Q 18.109375 30.953125 13.203125 35.15625 
Q 8.296875 39.359375 8.296875 46.6875 
Q 8.296875 54.640625 13.625 59.21875 
Q 18.953125 63.8125 28.90625 64.5 
L 28.90625 75.984375 
L 33.796875 75.984375 
L 33.796875 64.65625 
Q 38.328125 64.453125 42.578125 63.6875 
Q 46.828125 62.9375 50.875 61.625 
L 50.875 53.078125 
Q 46.828125 55.125 42.546875 56.25 
Q 38.28125 57.375 33.796875 57.5625 
L 33.796875 36.71875 
Q 44.875 35.015625 50.09375 30.609375 
Q 55.328125 26.21875 55.328125 18.609375 
Q 55.328125 10.359375 49.78125 5.59375 
Q 44.234375 0.828125 33.796875 0.09375 
z
M 28.90625 37.59375 
L 28.90625 57.625 
Q 23.25 56.984375 20.265625 54.390625 
Q 17.28125 51.8125 17.28125 47.515625 
Q 17.28125 43.3125 20.03125 40.96875 
Q 22.796875 38.625 28.90625 37.59375 
z
M 33.796875 28.21875 
L 33.796875 7.078125 
Q 39.984375 7.90625 43.140625 10.59375 
Q 46.296875 13.28125 46.296875 17.671875 
Q 46.296875 21.96875 43.28125 24.5 
Q 40.28125 27.046875 33.796875 28.21875 
z
" id="DejaVuSans-24"/>
      <path d="M 8.015625 75.875 
L 15.828125 75.875 
Q 23.140625 64.359375 26.78125 53.3125 
Q 30.421875 42.28125 30.421875 31.390625 
Q 30.421875 20.453125 26.78125 9.375 
Q 23.140625 -1.703125 15.828125 -13.1875 
L 8.015625 -13.1875 
Q 14.5 -2 17.703125 9.0625 
Q 20.90625 20.125 20.90625 31.390625 
Q 20.90625 42.671875 17.703125 53.65625 
Q 14.5 64.65625 8.015625 75.875 
z
" id="DejaVuSans-29"/>
      <path d="M 30.421875 75.984375 
L 30.421875 -13.1875 
L 9.71875 -13.1875 
L 9.71875 -6.203125 
L 21.390625 -6.203125 
L 21.390625 69 
L 9.71875 69 
L 9.71875 75.984375 
z
" id="DejaVuSans-5d"/>
     </defs>
     <g style="fill:#262626;" transform="translate(478.433437 656.29625)scale(0.12 -0.12)">
      <use xlink:href="#DejaVuSans-50"/>
      <use x="60.287109" xlink:href="#DejaVuSans-72"/>
      <use x="101.369141" xlink:href="#DejaVuSans-65"/>
      <use x="162.892578" xlink:href="#DejaVuSans-64"/>
      <use x="226.369141" xlink:href="#DejaVuSans-69"/>
      <use x="254.152344" xlink:href="#DejaVuSans-63"/>
      <use x="309.132812" xlink:href="#DejaVuSans-74"/>
      <use x="348.341797" xlink:href="#DejaVuSans-65"/>
      <use x="409.865234" xlink:href="#DejaVuSans-64"/>
      <use x="473.341797" xlink:href="#DejaVuSans-20"/>
      <use x="505.128906" xlink:href="#DejaVuSans-53"/>
      <use x="568.605469" xlink:href="#DejaVuSans-61"/>
      <use x="629.884766" xlink:href="#DejaVuSans-6c"/>
      <use x="657.667969" xlink:href="#DejaVuSans-61"/>
      <use x="718.947266" xlink:href="#DejaVuSans-72"/>
      <use x="760.060547" xlink:href="#DejaVuSans-79"/>
      <use x="819.240234" xlink:href="#DejaVuSans-20"/>
      <use x="851.027344" xlink:href="#DejaVuSans-5b"/>
      <use x="890.041016" xlink:href="#DejaVuSans-4c"/>
      <use x="945.738281" xlink:href="#DejaVuSans-6f"/>
      <use x="1006.919922" xlink:href="#DejaVuSans-67"/>
      <use x="1070.396484" xlink:href="#DejaVuSans-28"/>
      <use x="1109.410156" xlink:href="#DejaVuSans-24"/>
      <use x="1173.033203" xlink:href="#DejaVuSans-29"/>
      <use x="1212.046875" xlink:href="#DejaVuSans-5d"/>
     </g>
    </g>
   </g>
   <g id="matplotlib.axis_2">
    <g id="ytick_1">
     <g id="line2d_15">
      <path clip-path="url(#pf8e7449104)" d="M 135 568.567993 
L 972 568.567993 
" style="fill:none;stroke:#ffffff;stroke-linecap:round;stroke-width:0.8;"/>
     </g>
     <g id="line2d_16"/>
     <g id="text_9">
      <!-- −1.0 -->
      <defs>
       <path d="M 10.59375 35.5 
L 73.1875 35.5 
L 73.1875 27.203125 
L 10.59375 27.203125 
z
" id="DejaVuSans-2212"/>
       <path d="M 10.6875 12.40625 
L 21 12.40625 
L 21 0 
L 10.6875 0 
z
" id="DejaVuSans-2e"/>
      </defs>
      <g style="fill:#262626;" transform="translate(107.217187 572.367211)scale(0.1 -0.1)">
       <use xlink:href="#DejaVuSans-2212"/>
       <use x="83.789062" xlink:href="#DejaVuSans-31"/>
       <use x="147.412109" xlink:href="#DejaVuSans-2e"/>
       <use x="179.199219" xlink:href="#DejaVuSans-30"/>
      </g>
     </g>
    </g>
    <g id="ytick_2">
     <g id="line2d_17">
      <path clip-path="url(#pf8e7449104)" d="M 135 500.11817 
L 972 500.11817 
" style="fill:none;stroke:#ffffff;stroke-linecap:round;stroke-width:0.8;"/>
     </g>
     <g id="line2d_18"/>
     <g id="text_10">
      <!-- −0.5 -->
      <g style="fill:#262626;" transform="translate(107.217187 503.917389)scale(0.1 -0.1)">
       <use xlink:href="#DejaVuSans-2212"/>
       <use x="83.789062" xlink:href="#DejaVuSans-30"/>
       <use x="147.412109" xlink:href="#DejaVuSans-2e"/>
       <use x="179.199219" xlink:href="#DejaVuSans-35"/>
      </g>
     </g>
    </g>
    <g id="ytick_3">
     <g id="line2d_19">
      <path clip-path="url(#pf8e7449104)" d="M 135 431.668348 
L 972 431.668348 
" style="fill:none;stroke:#ffffff;stroke-linecap:round;stroke-width:0.8;"/>
     </g>
     <g id="line2d_20"/>
     <g id="text_11">
      <!-- 0.0 -->
      <g style="fill:#262626;" transform="translate(115.596875 435.467567)scale(0.1 -0.1)">
       <use xlink:href="#DejaVuSans-30"/>
       <use x="63.623047" xlink:href="#DejaVuSans-2e"/>
       <use x="95.410156" xlink:href="#DejaVuSans-30"/>
      </g>
     </g>
    </g>
    <g id="ytick_4">
     <g id="line2d_21">
      <path clip-path="url(#pf8e7449104)" d="M 135 363.218526 
L 972 363.218526 
" style="fill:none;stroke:#ffffff;stroke-linecap:round;stroke-width:0.8;"/>
     </g>
     <g id="line2d_22"/>
     <g id="text_12">
      <!-- 0.5 -->
      <g style="fill:#262626;" transform="translate(115.596875 367.017744)scale(0.1 -0.1)">
       <use xlink:href="#DejaVuSans-30"/>
       <use x="63.623047" xlink:href="#DejaVuSans-2e"/>
       <use x="95.410156" xlink:href="#DejaVuSans-35"/>
      </g>
     </g>
    </g>
    <g id="ytick_5">
     <g id="line2d_23">
      <path clip-path="url(#pf8e7449104)" d="M 135 294.768703 
L 972 294.768703 
" style="fill:none;stroke:#ffffff;stroke-linecap:round;stroke-width:0.8;"/>
     </g>
     <g id="line2d_24"/>
     <g id="text_13">
      <!-- 1.0 -->
      <g style="fill:#262626;" transform="translate(115.596875 298.567922)scale(0.1 -0.1)">
       <use xlink:href="#DejaVuSans-31"/>
       <use x="63.623047" xlink:href="#DejaVuSans-2e"/>
       <use x="95.410156" xlink:href="#DejaVuSans-30"/>
      </g>
     </g>
    </g>
    <g id="ytick_6">
     <g id="line2d_25">
      <path clip-path="url(#pf8e7449104)" d="M 135 226.318881 
L 972 226.318881 
" style="fill:none;stroke:#ffffff;stroke-linecap:round;stroke-width:0.8;"/>
     </g>
     <g id="line2d_26"/>
     <g id="text_14">
      <!-- 1.5 -->
      <g style="fill:#262626;" transform="translate(115.596875 230.1181)scale(0.1 -0.1)">
       <use xlink:href="#DejaVuSans-31"/>
       <use x="63.623047" xlink:href="#DejaVuSans-2e"/>
       <use x="95.410156" xlink:href="#DejaVuSans-35"/>
      </g>
     </g>
    </g>
    <g id="ytick_7">
     <g id="line2d_27">
      <path clip-path="url(#pf8e7449104)" d="M 135 157.869058 
L 972 157.869058 
" style="fill:none;stroke:#ffffff;stroke-linecap:round;stroke-width:0.8;"/>
     </g>
     <g id="line2d_28"/>
     <g id="text_15">
      <!-- 2.0 -->
      <g style="fill:#262626;" transform="translate(115.596875 161.668277)scale(0.1 -0.1)">
       <use xlink:href="#DejaVuSans-32"/>
       <use x="63.623047" xlink:href="#DejaVuSans-2e"/>
       <use x="95.410156" xlink:href="#DejaVuSans-30"/>
      </g>
     </g>
    </g>
    <g id="ytick_8">
     <g id="line2d_29">
      <path clip-path="url(#pf8e7449104)" d="M 135 89.419236 
L 972 89.419236 
" style="fill:none;stroke:#ffffff;stroke-linecap:round;stroke-width:0.8;"/>
     </g>
     <g id="line2d_30"/>
     <g id="text_16">
      <!-- 2.5 -->
      <g style="fill:#262626;" transform="translate(115.596875 93.218455)scale(0.1 -0.1)">
       <use xlink:href="#DejaVuSans-32"/>
       <use x="63.623047" xlink:href="#DejaVuSans-2e"/>
       <use x="95.410156" xlink:href="#DejaVuSans-35"/>
      </g>
     </g>
    </g>
    <g id="text_17">
     <!-- Actual Salary [Log($)] -->
     <defs>
      <path d="M 34.1875 63.1875 
L 20.796875 26.90625 
L 47.609375 26.90625 
z
M 28.609375 72.90625 
L 39.796875 72.90625 
L 67.578125 0 
L 57.328125 0 
L 50.6875 18.703125 
L 17.828125 18.703125 
L 11.1875 0 
L 0.78125 0 
z
" id="DejaVuSans-41"/>
      <path d="M 8.5 21.578125 
L 8.5 54.6875 
L 17.484375 54.6875 
L 17.484375 21.921875 
Q 17.484375 14.15625 20.5 10.265625 
Q 23.53125 6.390625 29.59375 6.390625 
Q 36.859375 6.390625 41.078125 11.03125 
Q 45.3125 15.671875 45.3125 23.6875 
L 45.3125 54.6875 
L 54.296875 54.6875 
L 54.296875 0 
L 45.3125 0 
L 45.3125 8.40625 
Q 42.046875 3.421875 37.71875 1 
Q 33.40625 -1.421875 27.6875 -1.421875 
Q 18.265625 -1.421875 13.375 4.4375 
Q 8.5 10.296875 8.5 21.578125 
z
M 31.109375 56 
z
" id="DejaVuSans-75"/>
     </defs>
     <g style="fill:#262626;" transform="translate(100.721562 423.765938)rotate(-90)scale(0.12 -0.12)">
      <use xlink:href="#DejaVuSans-41"/>
      <use x="68.392578" xlink:href="#DejaVuSans-63"/>
      <use x="123.373047" xlink:href="#DejaVuSans-74"/>
      <use x="162.582031" xlink:href="#DejaVuSans-75"/>
      <use x="225.960938" xlink:href="#DejaVuSans-61"/>
      <use x="287.240234" xlink:href="#DejaVuSans-6c"/>
      <use x="315.023438" xlink:href="#DejaVuSans-20"/>
      <use x="346.810547" xlink:href="#DejaVuSans-53"/>
      <use x="410.287109" xlink:href="#DejaVuSans-61"/>
      <use x="471.566406" xlink:href="#DejaVuSans-6c"/>
      <use x="499.349609" xlink:href="#DejaVuSans-61"/>
      <use x="560.628906" xlink:href="#DejaVuSans-72"/>
      <use x="601.742188" xlink:href="#DejaVuSans-79"/>
      <use x="660.921875" xlink:href="#DejaVuSans-20"/>
      <use x="692.708984" xlink:href="#DejaVuSans-5b"/>
      <use x="731.722656" xlink:href="#DejaVuSans-4c"/>
      <use x="787.419922" xlink:href="#DejaVuSans-6f"/>
      <use x="848.601562" xlink:href="#DejaVuSans-67"/>
      <use x="912.078125" xlink:href="#DejaVuSans-28"/>
      <use x="951.091797" xlink:href="#DejaVuSans-24"/>
      <use x="1014.714844" xlink:href="#DejaVuSans-29"/>
      <use x="1053.728516" xlink:href="#DejaVuSans-5d"/>
     </g>
    </g>
   </g>
   <g id="line2d_31">
    <defs>
     <path d="M 0 3 
C 0.795609 3 1.55874 2.683901 2.12132 2.12132 
C 2.683901 1.55874 3 0.795609 3 0 
C 3 -0.795609 2.683901 -1.55874 2.12132 -2.12132 
C 1.55874 -2.683901 0.795609 -3 0 -3 
C -0.795609 -3 -1.55874 -2.683901 -2.12132 -2.12132 
C -2.683901 -1.55874 -3 -0.795609 -3 0 
C -3 0.795609 -2.683901 1.55874 -2.12132 2.12132 
C -1.55874 2.683901 -0.795609 3 0 3 
z
" id="m84bf58f87c" style="stroke:#1f77b4;"/>
    </defs>
    <g clip-path="url(#pf8e7449104)">
     <use style="fill:#1f77b4;stroke:#1f77b4;" x="364.733766" xlink:href="#m84bf58f87c" y="406.296559"/>
     <use style="fill:#1f77b4;stroke:#1f77b4;" x="932.785714" xlink:href="#m84bf58f87c" y="424.99379"/>
     <use style="fill:#1f77b4;stroke:#1f77b4;" x="174.214286" xlink:href="#m84bf58f87c" y="347.055306"/>
     <use style="fill:#1f77b4;stroke:#1f77b4;" x="388.11039" xlink:href="#m84bf58f87c" y="412.67974"/>
     <use style="fill:#1f77b4;stroke:#1f77b4;" x="184.733766" xlink:href="#m84bf58f87c" y="295.507216"/>
     <use style="fill:#1f77b4;stroke:#1f77b4;" x="711.876623" xlink:href="#m84bf58f87c" y="516.871294"/>
     <use style="fill:#1f77b4;stroke:#1f77b4;" x="323.824675" xlink:href="#m84bf58f87c" y="324.471281"/>
     <use style="fill:#1f77b4;stroke:#1f77b4;" x="468.75974" xlink:href="#m84bf58f87c" y="425.419329"/>
     <use style="fill:#1f77b4;stroke:#1f77b4;" x="694.344156" xlink:href="#m84bf58f87c" y="426.66284"/>
     <use style="fill:#1f77b4;stroke:#1f77b4;" x="420.837662" xlink:href="#m84bf58f87c" y="356.218831"/>
     <use style="fill:#1f77b4;stroke:#1f77b4;" x="605.512987" xlink:href="#m84bf58f87c" y="426.858137"/>
     <use style="fill:#1f77b4;stroke:#1f77b4;" x="351.876623" xlink:href="#m84bf58f87c" y="340.155138"/>
     <use style="fill:#1f77b4;stroke:#1f77b4;" x="649.928571" xlink:href="#m84bf58f87c" y="481.383239"/>
     <use style="fill:#1f77b4;stroke:#1f77b4;" x="862.655844" xlink:href="#m84bf58f87c" y="470.085539"/>
     <use style="fill:#1f77b4;stroke:#1f77b4;" x="490.967532" xlink:href="#m84bf58f87c" y="458.682541"/>
     <use style="fill:#1f77b4;stroke:#1f77b4;" x="259.538961" xlink:href="#m84bf58f87c" y="544.408004"/>
     <use style="fill:#1f77b4;stroke:#1f77b4;" x="391.616883" xlink:href="#m84bf58f87c" y="376.105571"/>
     <use style="fill:#1f77b4;stroke:#1f77b4;" x="340.188312" xlink:href="#m84bf58f87c" y="431.632574"/>
     <use style="fill:#1f77b4;stroke:#1f77b4;" x="275.902597" xlink:href="#m84bf58f87c" y="501.101536"/>
     <use style="fill:#1f77b4;stroke:#1f77b4;" x="849.798701" xlink:href="#m84bf58f87c" y="432.948"/>
     <use style="fill:#1f77b4;stroke:#1f77b4;" x="845.123377" xlink:href="#m84bf58f87c" y="447.668413"/>
     <use style="fill:#1f77b4;stroke:#1f77b4;" x="478.11039" xlink:href="#m84bf58f87c" y="402.77553"/>
     <use style="fill:#1f77b4;stroke:#1f77b4;" x="223.305195" xlink:href="#m84bf58f87c" y="347.339699"/>
     <use style="fill:#1f77b4;stroke:#1f77b4;" x="448.88961" xlink:href="#m84bf58f87c" y="452.282168"/>
     <use style="fill:#1f77b4;stroke:#1f77b4;" x="413.824675" xlink:href="#m84bf58f87c" y="370.813723"/>
     <use style="fill:#1f77b4;stroke:#1f77b4;" x="839.279221" xlink:href="#m84bf58f87c" y="421.149208"/>
     <use style="fill:#1f77b4;stroke:#1f77b4;" x="584.474026" xlink:href="#m84bf58f87c" y="396.444941"/>
     <use style="fill:#1f77b4;stroke:#1f77b4;" x="835.772727" xlink:href="#m84bf58f87c" y="445.035647"/>
     <use style="fill:#1f77b4;stroke:#1f77b4;" x="201.097403" xlink:href="#m84bf58f87c" y="352.260558"/>
     <use style="fill:#1f77b4;stroke:#1f77b4;" x="864.993506" xlink:href="#m84bf58f87c" y="333.370252"/>
     <use style="fill:#1f77b4;stroke:#1f77b4;" x="852.136364" xlink:href="#m84bf58f87c" y="415.824433"/>
     <use style="fill:#1f77b4;stroke:#1f77b4;" x="418.5" xlink:href="#m84bf58f87c" y="405.532326"/>
     <use style="fill:#1f77b4;stroke:#1f77b4;" x="751.616883" xlink:href="#m84bf58f87c" y="415.15799"/>
     <use style="fill:#1f77b4;stroke:#1f77b4;" x="707.201299" xlink:href="#m84bf58f87c" y="515.38179"/>
     <use style="fill:#1f77b4;stroke:#1f77b4;" x="609.019481" xlink:href="#m84bf58f87c" y="403.875305"/>
     <use style="fill:#1f77b4;stroke:#1f77b4;" x="375.253247" xlink:href="#m84bf58f87c" y="404.861034"/>
     <use style="fill:#1f77b4;stroke:#1f77b4;" x="528.37013" xlink:href="#m84bf58f87c" y="459.133369"/>
     <use style="fill:#1f77b4;stroke:#1f77b4;" x="369.409091" xlink:href="#m84bf58f87c" y="384.950818"/>
     <use style="fill:#1f77b4;stroke:#1f77b4;" x="806.551948" xlink:href="#m84bf58f87c" y="468.405404"/>
     <use style="fill:#1f77b4;stroke:#1f77b4;" x="861.487013" xlink:href="#m84bf58f87c" y="417.372503"/>
     <use style="fill:#1f77b4;stroke:#1f77b4;" x="377.590909" xlink:href="#m84bf58f87c" y="403.89678"/>
     <use style="fill:#1f77b4;stroke:#1f77b4;" x="213.954545" xlink:href="#m84bf58f87c" y="532.810748"/>
     <use style="fill:#1f77b4;stroke:#1f77b4;" x="226.811688" xlink:href="#m84bf58f87c" y="371.907451"/>
     <use style="fill:#1f77b4;stroke:#1f77b4;" x="240.837662" xlink:href="#m84bf58f87c" y="441.676087"/>
     <use style="fill:#1f77b4;stroke:#1f77b4;" x="417.331169" xlink:href="#m84bf58f87c" y="193.156246"/>
     <use style="fill:#1f77b4;stroke:#1f77b4;" x="425.512987" xlink:href="#m84bf58f87c" y="429.269237"/>
     <use style="fill:#1f77b4;stroke:#1f77b4;" x="725.902597" xlink:href="#m84bf58f87c" y="484.713797"/>
     <use style="fill:#1f77b4;stroke:#1f77b4;" x="332.006494" xlink:href="#m84bf58f87c" y="423.331267"/>
     <use style="fill:#1f77b4;stroke:#1f77b4;" x="307.461039" xlink:href="#m84bf58f87c" y="476.668293"/>
     <use style="fill:#1f77b4;stroke:#1f77b4;" x="619.538961" xlink:href="#m84bf58f87c" y="446.813285"/>
     <use style="fill:#1f77b4;stroke:#1f77b4;" x="554.084416" xlink:href="#m84bf58f87c" y="379.814105"/>
     <use style="fill:#1f77b4;stroke:#1f77b4;" x="669.798701" xlink:href="#m84bf58f87c" y="431.776037"/>
     <use style="fill:#1f77b4;stroke:#1f77b4;" x="495.642857" xlink:href="#m84bf58f87c" y="465.626387"/>
     <use style="fill:#1f77b4;stroke:#1f77b4;" x="818.24026" xlink:href="#m84bf58f87c" y="458.041767"/>
     <use style="fill:#1f77b4;stroke:#1f77b4;" x="319.149351" xlink:href="#m84bf58f87c" y="426.441381"/>
     <use style="fill:#1f77b4;stroke:#1f77b4;" x="327.331169" xlink:href="#m84bf58f87c" y="384.958028"/>
     <use style="fill:#1f77b4;stroke:#1f77b4;" x="917.590909" xlink:href="#m84bf58f87c" y="455.324934"/>
     <use style="fill:#1f77b4;stroke:#1f77b4;" x="879.019481" xlink:href="#m84bf58f87c" y="435.492491"/>
     <use style="fill:#1f77b4;stroke:#1f77b4;" x="500.318182" xlink:href="#m84bf58f87c" y="452.834335"/>
     <use style="fill:#1f77b4;stroke:#1f77b4;" x="537.720779" xlink:href="#m84bf58f87c" y="344.010569"/>
     <use style="fill:#1f77b4;stroke:#1f77b4;" x="419.668831" xlink:href="#m84bf58f87c" y="468.647036"/>
     <use style="fill:#1f77b4;stroke:#1f77b4;" x="882.525974" xlink:href="#m84bf58f87c" y="459.207936"/>
     <use style="fill:#1f77b4;stroke:#1f77b4;" x="575.123377" xlink:href="#m84bf58f87c" y="451.337173"/>
     <use style="fill:#1f77b4;stroke:#1f77b4;" x="577.461039" xlink:href="#m84bf58f87c" y="320.18048"/>
     <use style="fill:#1f77b4;stroke:#1f77b4;" x="533.045455" xlink:href="#m84bf58f87c" y="285.47462"/>
     <use style="fill:#1f77b4;stroke:#1f77b4;" x="355.383117" xlink:href="#m84bf58f87c" y="525.858648"/>
     <use style="fill:#1f77b4;stroke:#1f77b4;" x="217.461039" xlink:href="#m84bf58f87c" y="532.810748"/>
     <use style="fill:#1f77b4;stroke:#1f77b4;" x="212.785714" xlink:href="#m84bf58f87c" y="417.271545"/>
     <use style="fill:#1f77b4;stroke:#1f77b4;" x="185.902597" xlink:href="#m84bf58f87c" y="354.020113"/>
     <use style="fill:#1f77b4;stroke:#1f77b4;" x="576.292208" xlink:href="#m84bf58f87c" y="413.32241"/>
     <use style="fill:#1f77b4;stroke:#1f77b4;" x="653.435065" xlink:href="#m84bf58f87c" y="436.590203"/>
     <use style="fill:#1f77b4;stroke:#1f77b4;" x="549.409091" xlink:href="#m84bf58f87c" y="359.415428"/>
     <use style="fill:#1f77b4;stroke:#1f77b4;" x="434.863636" xlink:href="#m84bf58f87c" y="364.005767"/>
     <use style="fill:#1f77b4;stroke:#1f77b4;" x="566.941558" xlink:href="#m84bf58f87c" y="429.818467"/>
     <use style="fill:#1f77b4;stroke:#1f77b4;" x="529.538961" xlink:href="#m84bf58f87c" y="374.777706"/>
     <use style="fill:#1f77b4;stroke:#1f77b4;" x="473.435065" xlink:href="#m84bf58f87c" y="485.348308"/>
     <use style="fill:#1f77b4;stroke:#1f77b4;" x="926.941558" xlink:href="#m84bf58f87c" y="398.968929"/>
     <use style="fill:#1f77b4;stroke:#1f77b4;" x="829.928571" xlink:href="#m84bf58f87c" y="405.652073"/>
     <use style="fill:#1f77b4;stroke:#1f77b4;" x="508.5" xlink:href="#m84bf58f87c" y="378.846307"/>
     <use style="fill:#1f77b4;stroke:#1f77b4;" x="363.564935" xlink:href="#m84bf58f87c" y="489.82595"/>
     <use style="fill:#1f77b4;stroke:#1f77b4;" x="182.396104" xlink:href="#m84bf58f87c" y="510.728562"/>
     <use style="fill:#1f77b4;stroke:#1f77b4;" x="205.772727" xlink:href="#m84bf58f87c" y="532.810748"/>
     <use style="fill:#1f77b4;stroke:#1f77b4;" x="819.409091" xlink:href="#m84bf58f87c" y="421.16673"/>
     <use style="fill:#1f77b4;stroke:#1f77b4;" x="767.980519" xlink:href="#m84bf58f87c" y="440.117747"/>
     <use style="fill:#1f77b4;stroke:#1f77b4;" x="436.032468" xlink:href="#m84bf58f87c" y="457.772989"/>
     <use style="fill:#1f77b4;stroke:#1f77b4;" x="810.058442" xlink:href="#m84bf58f87c" y="454.929743"/>
     <use style="fill:#1f77b4;stroke:#1f77b4;" x="370.577922" xlink:href="#m84bf58f87c" y="466.391821"/>
     <use style="fill:#1f77b4;stroke:#1f77b4;" x="272.396104" xlink:href="#m84bf58f87c" y="544.408004"/>
     <use style="fill:#1f77b4;stroke:#1f77b4;" x="353.045455" xlink:href="#m84bf58f87c" y="468.452935"/>
     <use style="fill:#1f77b4;stroke:#1f77b4;" x="732.915584" xlink:href="#m84bf58f87c" y="404.901704"/>
     <use style="fill:#1f77b4;stroke:#1f77b4;" x="403.305195" xlink:href="#m84bf58f87c" y="378.753"/>
     <use style="fill:#1f77b4;stroke:#1f77b4;" x="887.201299" xlink:href="#m84bf58f87c" y="423.407831"/>
     <use style="fill:#1f77b4;stroke:#1f77b4;" x="510.837662" xlink:href="#m84bf58f87c" y="473.931445"/>
     <use style="fill:#1f77b4;stroke:#1f77b4;" x="531.876623" xlink:href="#m84bf58f87c" y="422.813877"/>
     <use style="fill:#1f77b4;stroke:#1f77b4;" x="462.915584" xlink:href="#m84bf58f87c" y="414.679223"/>
     <use style="fill:#1f77b4;stroke:#1f77b4;" x="220.967532" xlink:href="#m84bf58f87c" y="532.810748"/>
     <use style="fill:#1f77b4;stroke:#1f77b4;" x="192.915584" xlink:href="#m84bf58f87c" y="203.870794"/>
     <use style="fill:#1f77b4;stroke:#1f77b4;" x="822.915584" xlink:href="#m84bf58f87c" y="420.07589"/>
     <use style="fill:#1f77b4;stroke:#1f77b4;" x="868.5" xlink:href="#m84bf58f87c" y="508.032914"/>
     <use style="fill:#1f77b4;stroke:#1f77b4;" x="317.980519" xlink:href="#m84bf58f87c" y="407.713728"/>
     <use style="fill:#1f77b4;stroke:#1f77b4;" x="921.097403" xlink:href="#m84bf58f87c" y="455.324934"/>
     <use style="fill:#1f77b4;stroke:#1f77b4;" x="779.668831" xlink:href="#m84bf58f87c" y="490.469758"/>
     <use style="fill:#1f77b4;stroke:#1f77b4;" x="731.746753" xlink:href="#m84bf58f87c" y="425.830687"/>
     <use style="fill:#1f77b4;stroke:#1f77b4;" x="677.980519" xlink:href="#m84bf58f87c" y="471.60428"/>
     <use style="fill:#1f77b4;stroke:#1f77b4;" x="631.227273" xlink:href="#m84bf58f87c" y="484.412663"/>
     <use style="fill:#1f77b4;stroke:#1f77b4;" x="509.668831" xlink:href="#m84bf58f87c" y="467.226281"/>
     <use style="fill:#1f77b4;stroke:#1f77b4;" x="232.655844" xlink:href="#m84bf58f87c" y="370.133223"/>
     <use style="fill:#1f77b4;stroke:#1f77b4;" x="444.214286" xlink:href="#m84bf58f87c" y="417.59764"/>
     <use style="fill:#1f77b4;stroke:#1f77b4;" x="850.967532" xlink:href="#m84bf58f87c" y="467.16409"/>
     <use style="fill:#1f77b4;stroke:#1f77b4;" x="799.538961" xlink:href="#m84bf58f87c" y="268.647072"/>
     <use style="fill:#1f77b4;stroke:#1f77b4;" x="687.331169" xlink:href="#m84bf58f87c" y="432.690345"/>
     <use style="fill:#1f77b4;stroke:#1f77b4;" x="360.058442" xlink:href="#m84bf58f87c" y="444.7003"/>
     <use style="fill:#1f77b4;stroke:#1f77b4;" x="922.266234" xlink:href="#m84bf58f87c" y="455.324934"/>
     <use style="fill:#1f77b4;stroke:#1f77b4;" x="739.928571" xlink:href="#m84bf58f87c" y="435.240464"/>
     <use style="fill:#1f77b4;stroke:#1f77b4;" x="250.188312" xlink:href="#m84bf58f87c" y="469.085332"/>
     <use style="fill:#1f77b4;stroke:#1f77b4;" x="313.305195" xlink:href="#m84bf58f87c" y="456.308018"/>
     <use style="fill:#1f77b4;stroke:#1f77b4;" x="666.292208" xlink:href="#m84bf58f87c" y="354.41983"/>
     <use style="fill:#1f77b4;stroke:#1f77b4;" x="260.707792" xlink:href="#m84bf58f87c" y="544.408004"/>
     <use style="fill:#1f77b4;stroke:#1f77b4;" x="869.668831" xlink:href="#m84bf58f87c" y="517.285026"/>
     <use style="fill:#1f77b4;stroke:#1f77b4;" x="181.227273" xlink:href="#m84bf58f87c" y="559.002722"/>
     <use style="fill:#1f77b4;stroke:#1f77b4;" x="774.993506" xlink:href="#m84bf58f87c" y="463.2439"/>
     <use style="fill:#1f77b4;stroke:#1f77b4;" x="349.538961" xlink:href="#m84bf58f87c" y="373.112707"/>
     <use style="fill:#1f77b4;stroke:#1f77b4;" x="558.75974" xlink:href="#m84bf58f87c" y="409.006454"/>
     <use style="fill:#1f77b4;stroke:#1f77b4;" x="800.707792" xlink:href="#m84bf58f87c" y="485.227771"/>
     <use style="fill:#1f77b4;stroke:#1f77b4;" x="870.837662" xlink:href="#m84bf58f87c" y="517.285026"/>
     <use style="fill:#1f77b4;stroke:#1f77b4;" x="641.746753" xlink:href="#m84bf58f87c" y="469.415792"/>
     <use style="fill:#1f77b4;stroke:#1f77b4;" x="507.331169" xlink:href="#m84bf58f87c" y="472.801812"/>
     <use style="fill:#1f77b4;stroke:#1f77b4;" x="570.448052" xlink:href="#m84bf58f87c" y="487.098468"/>
     <use style="fill:#1f77b4;stroke:#1f77b4;" x="833.435065" xlink:href="#m84bf58f87c" y="420.07589"/>
     <use style="fill:#1f77b4;stroke:#1f77b4;" x="437.201299" xlink:href="#m84bf58f87c" y="385.61367"/>
     <use style="fill:#1f77b4;stroke:#1f77b4;" x="522.525974" xlink:href="#m84bf58f87c" y="459.109034"/>
     <use style="fill:#1f77b4;stroke:#1f77b4;" x="503.824675" xlink:href="#m84bf58f87c" y="383.562747"/>
     <use style="fill:#1f77b4;stroke:#1f77b4;" x="762.136364" xlink:href="#m84bf58f87c" y="415.15799"/>
     <use style="fill:#1f77b4;stroke:#1f77b4;" x="724.733766" xlink:href="#m84bf58f87c" y="378.723073"/>
     <use style="fill:#1f77b4;stroke:#1f77b4;" x="919.928571" xlink:href="#m84bf58f87c" y="455.324934"/>
     <use style="fill:#1f77b4;stroke:#1f77b4;" x="287.590909" xlink:href="#m84bf58f87c" y="340.522219"/>
     <use style="fill:#1f77b4;stroke:#1f77b4;" x="675.642857" xlink:href="#m84bf58f87c" y="431.776037"/>
     <use style="fill:#1f77b4;stroke:#1f77b4;" x="697.850649" xlink:href="#m84bf58f87c" y="463.421907"/>
     <use style="fill:#1f77b4;stroke:#1f77b4;" x="857.980519" xlink:href="#m84bf58f87c" y="370.159313"/>
     <use style="fill:#1f77b4;stroke:#1f77b4;" x="429.019481" xlink:href="#m84bf58f87c" y="333.218358"/>
     <use style="fill:#1f77b4;stroke:#1f77b4;" x="896.551948" xlink:href="#m84bf58f87c" y="470.893873"/>
     <use style="fill:#1f77b4;stroke:#1f77b4;" x="714.214286" xlink:href="#m84bf58f87c" y="368.313239"/>
     <use style="fill:#1f77b4;stroke:#1f77b4;" x="499.149351" xlink:href="#m84bf58f87c" y="477.782284"/>
     <use style="fill:#1f77b4;stroke:#1f77b4;" x="197.590909" xlink:href="#m84bf58f87c" y="383.876494"/>
     <use style="fill:#1f77b4;stroke:#1f77b4;" x="662.785714" xlink:href="#m84bf58f87c" y="392.602916"/>
     <use style="fill:#1f77b4;stroke:#1f77b4;" x="411.487013" xlink:href="#m84bf58f87c" y="331.993599"/>
     <use style="fill:#1f77b4;stroke:#1f77b4;" x="840.448052" xlink:href="#m84bf58f87c" y="447.668413"/>
     <use style="fill:#1f77b4;stroke:#1f77b4;" x="773.824675" xlink:href="#m84bf58f87c" y="353.923115"/>
     <use style="fill:#1f77b4;stroke:#1f77b4;" x="893.045455" xlink:href="#m84bf58f87c" y="445.01243"/>
     <use style="fill:#1f77b4;stroke:#1f77b4;" x="479.279221" xlink:href="#m84bf58f87c" y="407.213022"/>
     <use style="fill:#1f77b4;stroke:#1f77b4;" x="690.837662" xlink:href="#m84bf58f87c" y="489.650892"/>
     <use style="fill:#1f77b4;stroke:#1f77b4;" x="828.75974" xlink:href="#m84bf58f87c" y="356.812448"/>
     <use style="fill:#1f77b4;stroke:#1f77b4;" x="492.136364" xlink:href="#m84bf58f87c" y="434.157874"/>
     <use style="fill:#1f77b4;stroke:#1f77b4;" x="771.487013" xlink:href="#m84bf58f87c" y="396.254652"/>
     <use style="fill:#1f77b4;stroke:#1f77b4;" x="651.097403" xlink:href="#m84bf58f87c" y="499.136454"/>
     <use style="fill:#1f77b4;stroke:#1f77b4;" x="562.266234" xlink:href="#m84bf58f87c" y="530.968695"/>
     <use style="fill:#1f77b4;stroke:#1f77b4;" x="386.941558" xlink:href="#m84bf58f87c" y="412.652363"/>
     <use style="fill:#1f77b4;stroke:#1f77b4;" x="737.590909" xlink:href="#m84bf58f87c" y="462.593611"/>
     <use style="fill:#1f77b4;stroke:#1f77b4;" x="639.409091" xlink:href="#m84bf58f87c" y="525.307289"/>
     <use style="fill:#1f77b4;stroke:#1f77b4;" x="908.24026" xlink:href="#m84bf58f87c" y="427.394684"/>
     <use style="fill:#1f77b4;stroke:#1f77b4;" x="888.37013" xlink:href="#m84bf58f87c" y="365.139492"/>
     <use style="fill:#1f77b4;stroke:#1f77b4;" x="842.785714" xlink:href="#m84bf58f87c" y="447.668413"/>
     <use style="fill:#1f77b4;stroke:#1f77b4;" x="291.097403" xlink:href="#m84bf58f87c" y="478.911873"/>
     <use style="fill:#1f77b4;stroke:#1f77b4;" x="305.123377" xlink:href="#m84bf58f87c" y="323.045715"/>
     <use style="fill:#1f77b4;stroke:#1f77b4;" x="301.616883" xlink:href="#m84bf58f87c" y="429.495668"/>
     <use style="fill:#1f77b4;stroke:#1f77b4;" x="873.175325" xlink:href="#m84bf58f87c" y="388.159785"/>
     <use style="fill:#1f77b4;stroke:#1f77b4;" x="489.798701" xlink:href="#m84bf58f87c" y="484.74118"/>
     <use style="fill:#1f77b4;stroke:#1f77b4;" x="929.279221" xlink:href="#m84bf58f87c" y="455.335266"/>
     <use style="fill:#1f77b4;stroke:#1f77b4;" x="481.616883" xlink:href="#m84bf58f87c" y="574.843561"/>
     <use style="fill:#1f77b4;stroke:#1f77b4;" x="466.422078" xlink:href="#m84bf58f87c" y="534.916705"/>
     <use style="fill:#1f77b4;stroke:#1f77b4;" x="273.564935" xlink:href="#m84bf58f87c" y="544.408004"/>
     <use style="fill:#1f77b4;stroke:#1f77b4;" x="753.954545" xlink:href="#m84bf58f87c" y="440.117747"/>
     <use style="fill:#1f77b4;stroke:#1f77b4;" x="504.993506" xlink:href="#m84bf58f87c" y="509.020673"/>
     <use style="fill:#1f77b4;stroke:#1f77b4;" x="583.305195" xlink:href="#m84bf58f87c" y="436.024659"/>
     <use style="fill:#1f77b4;stroke:#1f77b4;" x="777.331169" xlink:href="#m84bf58f87c" y="403.605777"/>
     <use style="fill:#1f77b4;stroke:#1f77b4;" x="914.084416" xlink:href="#m84bf58f87c" y="426.067108"/>
     <use style="fill:#1f77b4;stroke:#1f77b4;" x="715.383117" xlink:href="#m84bf58f87c" y="381.299657"/>
     <use style="fill:#1f77b4;stroke:#1f77b4;" x="204.603896" xlink:href="#m84bf58f87c" y="476.205217"/>
     <use style="fill:#1f77b4;stroke:#1f77b4;" x="376.422078" xlink:href="#m84bf58f87c" y="470.972016"/>
     <use style="fill:#1f77b4;stroke:#1f77b4;" x="543.564935" xlink:href="#m84bf58f87c" y="500.690982"/>
     <use style="fill:#1f77b4;stroke:#1f77b4;" x="550.577922" xlink:href="#m84bf58f87c" y="427.903306"/>
     <use style="fill:#1f77b4;stroke:#1f77b4;" x="321.487013" xlink:href="#m84bf58f87c" y="422.70772"/>
     <use style="fill:#1f77b4;stroke:#1f77b4;" x="414.993506" xlink:href="#m84bf58f87c" y="450.597524"/>
     <use style="fill:#1f77b4;stroke:#1f77b4;" x="514.344156" xlink:href="#m84bf58f87c" y="459.133369"/>
     <use style="fill:#1f77b4;stroke:#1f77b4;" x="702.525974" xlink:href="#m84bf58f87c" y="542.059994"/>
     <use style="fill:#1f77b4;stroke:#1f77b4;" x="438.37013" xlink:href="#m84bf58f87c" y="408.226194"/>
     <use style="fill:#1f77b4;stroke:#1f77b4;" x="812.396104" xlink:href="#m84bf58f87c" y="434.774839"/>
     <use style="fill:#1f77b4;stroke:#1f77b4;" x="571.616883" xlink:href="#m84bf58f87c" y="457.107659"/>
     <use style="fill:#1f77b4;stroke:#1f77b4;" x="464.084416" xlink:href="#m84bf58f87c" y="374.157553"/>
     <use style="fill:#1f77b4;stroke:#1f77b4;" x="880.188312" xlink:href="#m84bf58f87c" y="322.717291"/>
     <use style="fill:#1f77b4;stroke:#1f77b4;" x="646.422078" xlink:href="#m84bf58f87c" y="535.014056"/>
     <use style="fill:#1f77b4;stroke:#1f77b4;" x="589.149351" xlink:href="#m84bf58f87c" y="465.263852"/>
     <use style="fill:#1f77b4;stroke:#1f77b4;" x="838.11039" xlink:href="#m84bf58f87c" y="447.668413"/>
     <use style="fill:#1f77b4;stroke:#1f77b4;" x="538.88961" xlink:href="#m84bf58f87c" y="359.55672"/>
     <use style="fill:#1f77b4;stroke:#1f77b4;" x="804.214286" xlink:href="#m84bf58f87c" y="349.970103"/>
     <use style="fill:#1f77b4;stroke:#1f77b4;" x="628.88961" xlink:href="#m84bf58f87c" y="444.924378"/>
     <use style="fill:#1f77b4;stroke:#1f77b4;" x="614.863636" xlink:href="#m84bf58f87c" y="426.858137"/>
     <use style="fill:#1f77b4;stroke:#1f77b4;" x="191.746753" xlink:href="#m84bf58f87c" y="296.734221"/>
     <use style="fill:#1f77b4;stroke:#1f77b4;" x="894.214286" xlink:href="#m84bf58f87c" y="307.9127"/>
     <use style="fill:#1f77b4;stroke:#1f77b4;" x="693.175325" xlink:href="#m84bf58f87c" y="508.584141"/>
     <use style="fill:#1f77b4;stroke:#1f77b4;" x="306.292208" xlink:href="#m84bf58f87c" y="415.39799"/>
     <use style="fill:#1f77b4;stroke:#1f77b4;" x="681.487013" xlink:href="#m84bf58f87c" y="432.690345"/>
     <use style="fill:#1f77b4;stroke:#1f77b4;" x="610.188312" xlink:href="#m84bf58f87c" y="358.106046"/>
     <use style="fill:#1f77b4;stroke:#1f77b4;" x="933.954545" xlink:href="#m84bf58f87c" y="368.409704"/>
     <use style="fill:#1f77b4;stroke:#1f77b4;" x="361.227273" xlink:href="#m84bf58f87c" y="270.69491"/>
     <use style="fill:#1f77b4;stroke:#1f77b4;" x="717.720779" xlink:href="#m84bf58f87c" y="517.894598"/>
     <use style="fill:#1f77b4;stroke:#1f77b4;" x="393.954545" xlink:href="#m84bf58f87c" y="330.361491"/>
     <use style="fill:#1f77b4;stroke:#1f77b4;" x="264.214286" xlink:href="#m84bf58f87c" y="415.820872"/>
     <use style="fill:#1f77b4;stroke:#1f77b4;" x="618.37013" xlink:href="#m84bf58f87c" y="393.955957"/>
     <use style="fill:#1f77b4;stroke:#1f77b4;" x="236.162338" xlink:href="#m84bf58f87c" y="431.175296"/>
     <use style="fill:#1f77b4;stroke:#1f77b4;" x="673.305195" xlink:href="#m84bf58f87c" y="471.589278"/>
     <use style="fill:#1f77b4;stroke:#1f77b4;" x="679.149351" xlink:href="#m84bf58f87c" y="431.776037"/>
     <use style="fill:#1f77b4;stroke:#1f77b4;" x="208.11039" xlink:href="#m84bf58f87c" y="532.810748"/>
     <use style="fill:#1f77b4;stroke:#1f77b4;" x="727.071429" xlink:href="#m84bf58f87c" y="433.321736"/>
     <use style="fill:#1f77b4;stroke:#1f77b4;" x="722.396104" xlink:href="#m84bf58f87c" y="492.0918"/>
     <use style="fill:#1f77b4;stroke:#1f77b4;" x="916.422078" xlink:href="#m84bf58f87c" y="427.38626"/>
     <use style="fill:#1f77b4;stroke:#1f77b4;" x="203.435065" xlink:href="#m84bf58f87c" y="448.176107"/>
     <use style="fill:#1f77b4;stroke:#1f77b4;" x="544.733766" xlink:href="#m84bf58f87c" y="605.290909"/>
     <use style="fill:#1f77b4;stroke:#1f77b4;" x="295.772727" xlink:href="#m84bf58f87c" y="375.238176"/>
     <use style="fill:#1f77b4;stroke:#1f77b4;" x="431.357143" xlink:href="#m84bf58f87c" y="287.015806"/>
     <use style="fill:#1f77b4;stroke:#1f77b4;" x="904.733766" xlink:href="#m84bf58f87c" y="479.452815"/>
     <use style="fill:#1f77b4;stroke:#1f77b4;" x="339.019481" xlink:href="#m84bf58f87c" y="337.707734"/>
     <use style="fill:#1f77b4;stroke:#1f77b4;" x="467.590909" xlink:href="#m84bf58f87c" y="483.605618"/>
     <use style="fill:#1f77b4;stroke:#1f77b4;" x="606.681818" xlink:href="#m84bf58f87c" y="465.263852"/>
     <use style="fill:#1f77b4;stroke:#1f77b4;" x="783.175325" xlink:href="#m84bf58f87c" y="473.8616"/>
     <use style="fill:#1f77b4;stroke:#1f77b4;" x="764.474026" xlink:href="#m84bf58f87c" y="415.15799"/>
     <use style="fill:#1f77b4;stroke:#1f77b4;" x="796.032468" xlink:href="#m84bf58f87c" y="542.156125"/>
     <use style="fill:#1f77b4;stroke:#1f77b4;" x="245.512987" xlink:href="#m84bf58f87c" y="383.826443"/>
     <use style="fill:#1f77b4;stroke:#1f77b4;" x="744.603896" xlink:href="#m84bf58f87c" y="389.062131"/>
     <use style="fill:#1f77b4;stroke:#1f77b4;" x="496.811688" xlink:href="#m84bf58f87c" y="403.575095"/>
     <use style="fill:#1f77b4;stroke:#1f77b4;" x="642.915584" xlink:href="#m84bf58f87c" y="509.989918"/>
     <use style="fill:#1f77b4;stroke:#1f77b4;" x="367.071429" xlink:href="#m84bf58f87c" y="419.749299"/>
     <use style="fill:#1f77b4;stroke:#1f77b4;" x="778.5" xlink:href="#m84bf58f87c" y="518.806683"/>
     <use style="fill:#1f77b4;stroke:#1f77b4;" x="746.941558" xlink:href="#m84bf58f87c" y="375.774417"/>
     <use style="fill:#1f77b4;stroke:#1f77b4;" x="488.62987" xlink:href="#m84bf58f87c" y="481.183555"/>
     <use style="fill:#1f77b4;stroke:#1f77b4;" x="540.058442" xlink:href="#m84bf58f87c" y="437.54299"/>
     <use style="fill:#1f77b4;stroke:#1f77b4;" x="329.668831" xlink:href="#m84bf58f87c" y="420.738771"/>
     <use style="fill:#1f77b4;stroke:#1f77b4;" x="534.214286" xlink:href="#m84bf58f87c" y="422.813877"/>
     <use style="fill:#1f77b4;stroke:#1f77b4;" x="371.746753" xlink:href="#m84bf58f87c" y="455.733554"/>
     <use style="fill:#1f77b4;stroke:#1f77b4;" x="458.24026" xlink:href="#m84bf58f87c" y="298.83712"/>
     <use style="fill:#1f77b4;stroke:#1f77b4;" x="603.175325" xlink:href="#m84bf58f87c" y="426.858137"/>
     <use style="fill:#1f77b4;stroke:#1f77b4;" x="545.902597" xlink:href="#m84bf58f87c" y="377.951492"/>
     <use style="fill:#1f77b4;stroke:#1f77b4;" x="741.097403" xlink:href="#m84bf58f87c" y="471.158756"/>
     <use style="fill:#1f77b4;stroke:#1f77b4;" x="760.967532" xlink:href="#m84bf58f87c" y="440.117747"/>
     <use style="fill:#1f77b4;stroke:#1f77b4;" x="190.577922" xlink:href="#m84bf58f87c" y="556.39888"/>
     <use style="fill:#1f77b4;stroke:#1f77b4;" x="395.123377" xlink:href="#m84bf58f87c" y="410.715817"/>
     <use style="fill:#1f77b4;stroke:#1f77b4;" x="755.123377" xlink:href="#m84bf58f87c" y="415.15799"/>
     <use style="fill:#1f77b4;stroke:#1f77b4;" x="336.681818" xlink:href="#m84bf58f87c" y="415.506301"/>
     <use style="fill:#1f77b4;stroke:#1f77b4;" x="836.941558" xlink:href="#m84bf58f87c" y="447.668413"/>
     <use style="fill:#1f77b4;stroke:#1f77b4;" x="915.253247" xlink:href="#m84bf58f87c" y="452.586313"/>
     <use style="fill:#1f77b4;stroke:#1f77b4;" x="817.071429" xlink:href="#m84bf58f87c" y="459.664888"/>
     <use style="fill:#1f77b4;stroke:#1f77b4;" x="251.357143" xlink:href="#m84bf58f87c" y="470.576034"/>
     <use style="fill:#1f77b4;stroke:#1f77b4;" x="808.88961" xlink:href="#m84bf58f87c" y="397.553072"/>
     <use style="fill:#1f77b4;stroke:#1f77b4;" x="877.850649" xlink:href="#m84bf58f87c" y="390.782795"/>
     <use style="fill:#1f77b4;stroke:#1f77b4;" x="406.811688" xlink:href="#m84bf58f87c" y="482.376137"/>
     <use style="fill:#1f77b4;stroke:#1f77b4;" x="485.123377" xlink:href="#m84bf58f87c" y="381.409974"/>
     <use style="fill:#1f77b4;stroke:#1f77b4;" x="706.032468" xlink:href="#m84bf58f87c" y="365.691672"/>
     <use style="fill:#1f77b4;stroke:#1f77b4;" x="194.084416" xlink:href="#m84bf58f87c" y="552.186821"/>
     <use style="fill:#1f77b4;stroke:#1f77b4;" x="626.551948" xlink:href="#m84bf58f87c" y="494.181155"/>
     <use style="fill:#1f77b4;stroke:#1f77b4;" x="658.11039" xlink:href="#m84bf58f87c" y="480.782917"/>
     <use style="fill:#1f77b4;stroke:#1f77b4;" x="569.279221" xlink:href="#m84bf58f87c" y="404.311049"/>
     <use style="fill:#1f77b4;stroke:#1f77b4;" x="239.668831" xlink:href="#m84bf58f87c" y="380.745056"/>
     <use style="fill:#1f77b4;stroke:#1f77b4;" x="670.967532" xlink:href="#m84bf58f87c" y="432.690345"/>
     <use style="fill:#1f77b4;stroke:#1f77b4;" x="443.045455" xlink:href="#m84bf58f87c" y="452.282168"/>
     <use style="fill:#1f77b4;stroke:#1f77b4;" x="187.071429" xlink:href="#m84bf58f87c" y="373.705591"/>
     <use style="fill:#1f77b4;stroke:#1f77b4;" x="196.422078" xlink:href="#m84bf58f87c" y="390.667885"/>
     <use style="fill:#1f77b4;stroke:#1f77b4;" x="474.603896" xlink:href="#m84bf58f87c" y="399.420018"/>
     <use style="fill:#1f77b4;stroke:#1f77b4;" x="551.746753" xlink:href="#m84bf58f87c" y="407.417408"/>
     <use style="fill:#1f77b4;stroke:#1f77b4;" x="399.798701" xlink:href="#m84bf58f87c" y="412.920808"/>
     <use style="fill:#1f77b4;stroke:#1f77b4;" x="482.785714" xlink:href="#m84bf58f87c" y="430.611668"/>
     <use style="fill:#1f77b4;stroke:#1f77b4;" x="183.564935" xlink:href="#m84bf58f87c" y="525.484848"/>
     <use style="fill:#1f77b4;stroke:#1f77b4;" x="476.941558" xlink:href="#m84bf58f87c" y="427.181919"/>
     <use style="fill:#1f77b4;stroke:#1f77b4;" x="512.006494" xlink:href="#m84bf58f87c" y="458.47644"/>
     <use style="fill:#1f77b4;stroke:#1f77b4;" x="876.681818" xlink:href="#m84bf58f87c" y="479.192611"/>
     <use style="fill:#1f77b4;stroke:#1f77b4;" x="326.162338" xlink:href="#m84bf58f87c" y="495.291294"/>
     <use style="fill:#1f77b4;stroke:#1f77b4;" x="695.512987" xlink:href="#m84bf58f87c" y="414.576424"/>
     <use style="fill:#1f77b4;stroke:#1f77b4;" x="368.24026" xlink:href="#m84bf58f87c" y="457.405898"/>
     <use style="fill:#1f77b4;stroke:#1f77b4;" x="911.746753" xlink:href="#m84bf58f87c" y="455.335266"/>
     <use style="fill:#1f77b4;stroke:#1f77b4;" x="597.331169" xlink:href="#m84bf58f87c" y="391.963478"/>
     <use style="fill:#1f77b4;stroke:#1f77b4;" x="813.564935" xlink:href="#m84bf58f87c" y="465.558627"/>
     <use style="fill:#1f77b4;stroke:#1f77b4;" x="749.279221" xlink:href="#m84bf58f87c" y="415.15799"/>
     <use style="fill:#1f77b4;stroke:#1f77b4;" x="855.642857" xlink:href="#m84bf58f87c" y="539.980635"/>
     <use style="fill:#1f77b4;stroke:#1f77b4;" x="684.993506" xlink:href="#m84bf58f87c" y="432.690345"/>
     <use style="fill:#1f77b4;stroke:#1f77b4;" x="267.720779" xlink:href="#m84bf58f87c" y="544.408004"/>
     <use style="fill:#1f77b4;stroke:#1f77b4;" x="343.694805" xlink:href="#m84bf58f87c" y="469.425987"/>
     <use style="fill:#1f77b4;stroke:#1f77b4;" x="563.435065" xlink:href="#m84bf58f87c" y="385.574168"/>
     <use style="fill:#1f77b4;stroke:#1f77b4;" x="465.253247" xlink:href="#m84bf58f87c" y="374.157553"/>
     <use style="fill:#1f77b4;stroke:#1f77b4;" x="233.824675" xlink:href="#m84bf58f87c" y="351.079827"/>
     <use style="fill:#1f77b4;stroke:#1f77b4;" x="231.487013" xlink:href="#m84bf58f87c" y="395.633174"/>
     <use style="fill:#1f77b4;stroke:#1f77b4;" x="542.396104" xlink:href="#m84bf58f87c" y="423.228386"/>
     <use style="fill:#1f77b4;stroke:#1f77b4;" x="573.954545" xlink:href="#m84bf58f87c" y="445.773421"/>
     <use style="fill:#1f77b4;stroke:#1f77b4;" x="881.357143" xlink:href="#m84bf58f87c" y="322.717291"/>
     <use style="fill:#1f77b4;stroke:#1f77b4;" x="412.655844" xlink:href="#m84bf58f87c" y="457.439547"/>
     <use style="fill:#1f77b4;stroke:#1f77b4;" x="346.032468" xlink:href="#m84bf58f87c" y="380.97655"/>
     <use style="fill:#1f77b4;stroke:#1f77b4;" x="580.967532" xlink:href="#m84bf58f87c" y="461.031096"/>
     <use style="fill:#1f77b4;stroke:#1f77b4;" x="397.461039" xlink:href="#m84bf58f87c" y="441.984891"/>
     <use style="fill:#1f77b4;stroke:#1f77b4;" x="379.928571" xlink:href="#m84bf58f87c" y="326.623438"/>
     <use style="fill:#1f77b4;stroke:#1f77b4;" x="586.811688" xlink:href="#m84bf58f87c" y="381.00566"/>
     <use style="fill:#1f77b4;stroke:#1f77b4;" x="703.694805" xlink:href="#m84bf58f87c" y="312.486834"/>
     <use style="fill:#1f77b4;stroke:#1f77b4;" x="592.655844" xlink:href="#m84bf58f87c" y="465.263852"/>
     <use style="fill:#1f77b4;stroke:#1f77b4;" x="682.655844" xlink:href="#m84bf58f87c" y="471.589278"/>
     <use style="fill:#1f77b4;stroke:#1f77b4;" x="294.603896" xlink:href="#m84bf58f87c" y="508.827231"/>
     <use style="fill:#1f77b4;stroke:#1f77b4;" x="198.75974" xlink:href="#m84bf58f87c" y="389.159771"/>
     <use style="fill:#1f77b4;stroke:#1f77b4;" x="590.318182" xlink:href="#m84bf58f87c" y="465.263852"/>
     <use style="fill:#1f77b4;stroke:#1f77b4;" x="344.863636" xlink:href="#m84bf58f87c" y="486.172177"/>
     <use style="fill:#1f77b4;stroke:#1f77b4;" x="216.292208" xlink:href="#m84bf58f87c" y="417.271545"/>
     <use style="fill:#1f77b4;stroke:#1f77b4;" x="930.448052" xlink:href="#m84bf58f87c" y="312.912627"/>
     <use style="fill:#1f77b4;stroke:#1f77b4;" x="710.707792" xlink:href="#m84bf58f87c" y="337.361974"/>
     <use style="fill:#1f77b4;stroke:#1f77b4;" x="347.201299" xlink:href="#m84bf58f87c" y="431.40185"/>
     <use style="fill:#1f77b4;stroke:#1f77b4;" x="372.915584" xlink:href="#m84bf58f87c" y="418.438436"/>
     <use style="fill:#1f77b4;stroke:#1f77b4;" x="299.279221" xlink:href="#m84bf58f87c" y="360.773135"/>
     <use style="fill:#1f77b4;stroke:#1f77b4;" x="487.461039" xlink:href="#m84bf58f87c" y="481.183555"/>
     <use style="fill:#1f77b4;stroke:#1f77b4;" x="263.045455" xlink:href="#m84bf58f87c" y="501.101536"/>
     <use style="fill:#1f77b4;stroke:#1f77b4;" x="278.24026" xlink:href="#m84bf58f87c" y="501.101536"/>
     <use style="fill:#1f77b4;stroke:#1f77b4;" x="471.097403" xlink:href="#m84bf58f87c" y="413.287365"/>
     <use style="fill:#1f77b4;stroke:#1f77b4;" x="912.915584" xlink:href="#m84bf58f87c" y="455.324934"/>
     <use style="fill:#1f77b4;stroke:#1f77b4;" x="790.188312" xlink:href="#m84bf58f87c" y="488.066406"/>
     <use style="fill:#1f77b4;stroke:#1f77b4;" x="475.772727" xlink:href="#m84bf58f87c" y="399.420018"/>
     <use style="fill:#1f77b4;stroke:#1f77b4;" x="848.62987" xlink:href="#m84bf58f87c" y="479.590666"/>
     <use style="fill:#1f77b4;stroke:#1f77b4;" x="210.448052" xlink:href="#m84bf58f87c" y="532.810748"/>
     <use style="fill:#1f77b4;stroke:#1f77b4;" x="341.357143" xlink:href="#m84bf58f87c" y="390.016609"/>
     <use style="fill:#1f77b4;stroke:#1f77b4;" x="630.058442" xlink:href="#m84bf58f87c" y="421.772631"/>
     <use style="fill:#1f77b4;stroke:#1f77b4;" x="460.577922" xlink:href="#m84bf58f87c" y="417.59764"/>
     <use style="fill:#1f77b4;stroke:#1f77b4;" x="459.409091" xlink:href="#m84bf58f87c" y="357.802724"/>
     <use style="fill:#1f77b4;stroke:#1f77b4;" x="178.88961" xlink:href="#m84bf58f87c" y="356.996424"/>
     <use style="fill:#1f77b4;stroke:#1f77b4;" x="516.681818" xlink:href="#m84bf58f87c" y="422.826322"/>
     <use style="fill:#1f77b4;stroke:#1f77b4;" x="632.396104" xlink:href="#m84bf58f87c" y="399.670755"/>
     <use style="fill:#1f77b4;stroke:#1f77b4;" x="867.331169" xlink:href="#m84bf58f87c" y="422.367408"/>
     <use style="fill:#1f77b4;stroke:#1f77b4;" x="219.798701" xlink:href="#m84bf58f87c" y="532.810748"/>
     <use style="fill:#1f77b4;stroke:#1f77b4;" x="766.811688" xlink:href="#m84bf58f87c" y="440.117747"/>
     <use style="fill:#1f77b4;stroke:#1f77b4;" x="668.62987" xlink:href="#m84bf58f87c" y="415.472561"/>
     <use style="fill:#1f77b4;stroke:#1f77b4;" x="596.162338" xlink:href="#m84bf58f87c" y="426.858137"/>
     <use style="fill:#1f77b4;stroke:#1f77b4;" x="227.980519" xlink:href="#m84bf58f87c" y="327.209206"/>
     <use style="fill:#1f77b4;stroke:#1f77b4;" x="847.461039" xlink:href="#m84bf58f87c" y="542.851292"/>
     <use style="fill:#1f77b4;stroke:#1f77b4;" x="798.37013" xlink:href="#m84bf58f87c" y="431.90306"/>
     <use style="fill:#1f77b4;stroke:#1f77b4;" x="405.642857" xlink:href="#m84bf58f87c" y="598.318991"/>
     <use style="fill:#1f77b4;stroke:#1f77b4;" x="400.967532" xlink:href="#m84bf58f87c" y="414.588276"/>
     <use style="fill:#1f77b4;stroke:#1f77b4;" x="334.344156" xlink:href="#m84bf58f87c" y="495.291294"/>
     <use style="fill:#1f77b4;stroke:#1f77b4;" x="807.720779" xlink:href="#m84bf58f87c" y="483.394661"/>
     <use style="fill:#1f77b4;stroke:#1f77b4;" x="757.461039" xlink:href="#m84bf58f87c" y="415.15799"/>
     <use style="fill:#1f77b4;stroke:#1f77b4;" x="568.11039" xlink:href="#m84bf58f87c" y="510.059579"/>
     <use style="fill:#1f77b4;stroke:#1f77b4;" x="536.551948" xlink:href="#m84bf58f87c" y="237.791557"/>
     <use style="fill:#1f77b4;stroke:#1f77b4;" x="765.642857" xlink:href="#m84bf58f87c" y="440.117747"/>
     <use style="fill:#1f77b4;stroke:#1f77b4;" x="617.201299" xlink:href="#m84bf58f87c" y="498.138606"/>
     <use style="fill:#1f77b4;stroke:#1f77b4;" x="782.006494" xlink:href="#m84bf58f87c" y="488.11665"/>
     <use style="fill:#1f77b4;stroke:#1f77b4;" x="530.707792" xlink:href="#m84bf58f87c" y="422.826322"/>
     <use style="fill:#1f77b4;stroke:#1f77b4;" x="841.616883" xlink:href="#m84bf58f87c" y="445.035647"/>
     <use style="fill:#1f77b4;stroke:#1f77b4;" x="312.136364" xlink:href="#m84bf58f87c" y="371.858637"/>
     <use style="fill:#1f77b4;stroke:#1f77b4;" x="455.902597" xlink:href="#m84bf58f87c" y="408.15254"/>
     <use style="fill:#1f77b4;stroke:#1f77b4;" x="409.149351" xlink:href="#m84bf58f87c" y="438.378989"/>
     <use style="fill:#1f77b4;stroke:#1f77b4;" x="624.214286" xlink:href="#m84bf58f87c" y="346.806285"/>
     <use style="fill:#1f77b4;stroke:#1f77b4;" x="713.045455" xlink:href="#m84bf58f87c" y="338.149083"/>
     <use style="fill:#1f77b4;stroke:#1f77b4;" x="513.175325" xlink:href="#m84bf58f87c" y="478.827088"/>
     <use style="fill:#1f77b4;stroke:#1f77b4;" x="501.487013" xlink:href="#m84bf58f87c" y="451.575341"/>
     <use style="fill:#1f77b4;stroke:#1f77b4;" x="638.24026" xlink:href="#m84bf58f87c" y="428.208317"/>
     <use style="fill:#1f77b4;stroke:#1f77b4;" x="763.305195" xlink:href="#m84bf58f87c" y="415.15799"/>
     <use style="fill:#1f77b4;stroke:#1f77b4;" x="469.928571" xlink:href="#m84bf58f87c" y="432.435941"/>
     <use style="fill:#1f77b4;stroke:#1f77b4;" x="309.798701" xlink:href="#m84bf58f87c" y="536.585873"/>
     <use style="fill:#1f77b4;stroke:#1f77b4;" x="853.305195" xlink:href="#m84bf58f87c" y="477.541125"/>
     <use style="fill:#1f77b4;stroke:#1f77b4;" x="450.058442" xlink:href="#m84bf58f87c" y="452.282168"/>
     <use style="fill:#1f77b4;stroke:#1f77b4;" x="502.655844" xlink:href="#m84bf58f87c" y="463.89667"/>
     <use style="fill:#1f77b4;stroke:#1f77b4;" x="559.928571" xlink:href="#m84bf58f87c" y="463.954956"/>
     <use style="fill:#1f77b4;stroke:#1f77b4;" x="689.668831" xlink:href="#m84bf58f87c" y="432.690345"/>
     <use style="fill:#1f77b4;stroke:#1f77b4;" x="593.824675" xlink:href="#m84bf58f87c" y="465.263852"/>
     <use style="fill:#1f77b4;stroke:#1f77b4;" x="266.551948" xlink:href="#m84bf58f87c" y="415.820872"/>
     <use style="fill:#1f77b4;stroke:#1f77b4;" x="445.383117" xlink:href="#m84bf58f87c" y="417.59764"/>
     <use style="fill:#1f77b4;stroke:#1f77b4;" x="918.75974" xlink:href="#m84bf58f87c" y="455.324934"/>
     <use style="fill:#1f77b4;stroke:#1f77b4;" x="322.655844" xlink:href="#m84bf58f87c" y="466.751052"/>
     <use style="fill:#1f77b4;stroke:#1f77b4;" x="616.032468" xlink:href="#m84bf58f87c" y="427.620043"/>
     <use style="fill:#1f77b4;stroke:#1f77b4;" x="257.201299" xlink:href="#m84bf58f87c" y="544.408004"/>
     <use style="fill:#1f77b4;stroke:#1f77b4;" x="824.084416" xlink:href="#m84bf58f87c" y="395.758677"/>
     <use style="fill:#1f77b4;stroke:#1f77b4;" x="282.915584" xlink:href="#m84bf58f87c" y="363.041349"/>
     <use style="fill:#1f77b4;stroke:#1f77b4;" x="676.811688" xlink:href="#m84bf58f87c" y="385.92356"/>
     <use style="fill:#1f77b4;stroke:#1f77b4;" x="354.214286" xlink:href="#m84bf58f87c" y="426.72437"/>
     <use style="fill:#1f77b4;stroke:#1f77b4;" x="547.071429" xlink:href="#m84bf58f87c" y="425.947315"/>
     <use style="fill:#1f77b4;stroke:#1f77b4;" x="284.084416" xlink:href="#m84bf58f87c" y="384.78965"/>
     <use style="fill:#1f77b4;stroke:#1f77b4;" x="218.62987" xlink:href="#m84bf58f87c" y="489.50428"/>
     <use style="fill:#1f77b4;stroke:#1f77b4;" x="292.266234" xlink:href="#m84bf58f87c" y="487.860575"/>
     <use style="fill:#1f77b4;stroke:#1f77b4;" x="602.006494" xlink:href="#m84bf58f87c" y="426.858137"/>
     <use style="fill:#1f77b4;stroke:#1f77b4;" x="173.045455" xlink:href="#m84bf58f87c" y="598.132876"/>
     <use style="fill:#1f77b4;stroke:#1f77b4;" x="633.564935" xlink:href="#m84bf58f87c" y="349.041212"/>
     <use style="fill:#1f77b4;stroke:#1f77b4;" x="383.435065" xlink:href="#m84bf58f87c" y="412.67974"/>
     <use style="fill:#1f77b4;stroke:#1f77b4;" x="674.474026" xlink:href="#m84bf58f87c" y="471.589278"/>
     <use style="fill:#1f77b4;stroke:#1f77b4;" x="258.37013" xlink:href="#m84bf58f87c" y="373.360772"/>
     <use style="fill:#1f77b4;stroke:#1f77b4;" x="654.603896" xlink:href="#m84bf58f87c" y="436.590203"/>
     <use style="fill:#1f77b4;stroke:#1f77b4;" x="541.227273" xlink:href="#m84bf58f87c" y="540.701477"/>
     <use style="fill:#1f77b4;stroke:#1f77b4;" x="324.993506" xlink:href="#m84bf58f87c" y="370.534211"/>
     <use style="fill:#1f77b4;stroke:#1f77b4;" x="293.435065" xlink:href="#m84bf58f87c" y="332.893923"/>
     <use style="fill:#1f77b4;stroke:#1f77b4;" x="579.798701" xlink:href="#m84bf58f87c" y="455.282249"/>
     <use style="fill:#1f77b4;stroke:#1f77b4;" x="247.850649" xlink:href="#m84bf58f87c" y="470.823582"/>
     <use style="fill:#1f77b4;stroke:#1f77b4;" x="281.746753" xlink:href="#m84bf58f87c" y="544.408004"/>
     <use style="fill:#1f77b4;stroke:#1f77b4;" x="718.88961" xlink:href="#m84bf58f87c" y="526.165195"/>
     <use style="fill:#1f77b4;stroke:#1f77b4;" x="721.227273" xlink:href="#m84bf58f87c" y="494.237023"/>
     <use style="fill:#1f77b4;stroke:#1f77b4;" x="342.525974" xlink:href="#m84bf58f87c" y="394.610596"/>
     <use style="fill:#1f77b4;stroke:#1f77b4;" x="924.603896" xlink:href="#m84bf58f87c" y="398.962084"/>
     <use style="fill:#1f77b4;stroke:#1f77b4;" x="286.422078" xlink:href="#m84bf58f87c" y="317.214246"/>
     <use style="fill:#1f77b4;stroke:#1f77b4;" x="863.824675" xlink:href="#m84bf58f87c" y="111.109091"/>
     <use style="fill:#1f77b4;stroke:#1f77b4;" x="607.850649" xlink:href="#m84bf58f87c" y="426.858137"/>
     <use style="fill:#1f77b4;stroke:#1f77b4;" x="594.993506" xlink:href="#m84bf58f87c" y="465.263852"/>
     <use style="fill:#1f77b4;stroke:#1f77b4;" x="793.694805" xlink:href="#m84bf58f87c" y="509.196042"/>
     <use style="fill:#1f77b4;stroke:#1f77b4;" x="506.162338" xlink:href="#m84bf58f87c" y="415.093518"/>
     <use style="fill:#1f77b4;stroke:#1f77b4;" x="430.188312" xlink:href="#m84bf58f87c" y="429.152119"/>
     <use style="fill:#1f77b4;stroke:#1f77b4;" x="225.642857" xlink:href="#m84bf58f87c" y="453.468726"/>
     <use style="fill:#1f77b4;stroke:#1f77b4;" x="483.954545" xlink:href="#m84bf58f87c" y="532.850052"/>
     <use style="fill:#1f77b4;stroke:#1f77b4;" x="298.11039" xlink:href="#m84bf58f87c" y="483.983624"/>
    </g>
   </g>
   <g id="patch_3">
    <path d="M 135 630 
L 135 86.4 
" style="fill:none;"/>
   </g>
   <g id="patch_4">
    <path d="M 972 630 
L 972 86.4 
" style="fill:none;"/>
   </g>
   <g id="patch_5">
    <path d="M 135 630 
L 972 630 
" style="fill:none;"/>
   </g>
   <g id="patch_6">
    <path d="M 135 86.4 
L 972 86.4 
" style="fill:none;"/>
   </g>
   <g id="text_18">
    <!-- Predicted vs. Actual Salary -->
    <defs>
     <path d="M 9.1875 72.90625 
L 40.375 72.90625 
Q 54.296875 72.90625 61.734375 66.71875 
Q 69.1875 60.546875 69.1875 49.125 
Q 69.1875 37.640625 61.734375 31.46875 
Q 54.296875 25.296875 40.375 25.296875 
L 27.984375 25.296875 
L 27.984375 0 
L 9.1875 0 
z
M 27.984375 59.28125 
L 27.984375 38.921875 
L 38.375 38.921875 
Q 43.84375 38.921875 46.828125 41.578125 
Q 49.8125 44.234375 49.8125 49.125 
Q 49.8125 54 46.828125 56.640625 
Q 43.84375 59.28125 38.375 59.28125 
z
" id="DejaVuSans-Bold-50"/>
     <path d="M 49.03125 39.796875 
Q 46.734375 40.875 44.453125 41.375 
Q 42.1875 41.890625 39.890625 41.890625 
Q 33.15625 41.890625 29.515625 37.5625 
Q 25.875 33.25 25.875 25.203125 
L 25.875 0 
L 8.40625 0 
L 8.40625 54.6875 
L 25.875 54.6875 
L 25.875 45.703125 
Q 29.25 51.078125 33.609375 53.53125 
Q 37.984375 56 44.09375 56 
Q 44.96875 56 45.984375 55.921875 
Q 47.015625 55.859375 48.96875 55.609375 
z
" id="DejaVuSans-Bold-72"/>
     <path d="M 62.984375 27.484375 
L 62.984375 22.515625 
L 22.125 22.515625 
Q 22.75 16.359375 26.5625 13.28125 
Q 30.375 10.203125 37.203125 10.203125 
Q 42.71875 10.203125 48.5 11.84375 
Q 54.296875 13.484375 60.40625 16.796875 
L 60.40625 3.328125 
Q 54.203125 0.984375 48 -0.21875 
Q 41.796875 -1.421875 35.59375 -1.421875 
Q 20.75 -1.421875 12.515625 6.125 
Q 4.296875 13.671875 4.296875 27.296875 
Q 4.296875 40.671875 12.375 48.328125 
Q 20.453125 56 34.625 56 
Q 47.515625 56 55.25 48.234375 
Q 62.984375 40.484375 62.984375 27.484375 
z
M 45.015625 33.296875 
Q 45.015625 38.28125 42.109375 41.328125 
Q 39.203125 44.390625 34.515625 44.390625 
Q 29.4375 44.390625 26.265625 41.53125 
Q 23.09375 38.671875 22.3125 33.296875 
z
" id="DejaVuSans-Bold-65"/>
     <path d="M 45.609375 46.6875 
L 45.609375 75.984375 
L 63.1875 75.984375 
L 63.1875 0 
L 45.609375 0 
L 45.609375 7.90625 
Q 42 3.078125 37.640625 0.828125 
Q 33.296875 -1.421875 27.59375 -1.421875 
Q 17.484375 -1.421875 10.984375 6.609375 
Q 4.5 14.65625 4.5 27.296875 
Q 4.5 39.9375 10.984375 47.96875 
Q 17.484375 56 27.59375 56 
Q 33.25 56 37.625 53.734375 
Q 42 51.46875 45.609375 46.6875 
z
M 34.078125 11.28125 
Q 39.703125 11.28125 42.65625 15.375 
Q 45.609375 19.484375 45.609375 27.296875 
Q 45.609375 35.109375 42.65625 39.203125 
Q 39.703125 43.3125 34.078125 43.3125 
Q 28.515625 43.3125 25.5625 39.203125 
Q 22.609375 35.109375 22.609375 27.296875 
Q 22.609375 19.484375 25.5625 15.375 
Q 28.515625 11.28125 34.078125 11.28125 
z
" id="DejaVuSans-Bold-64"/>
     <path d="M 8.40625 54.6875 
L 25.875 54.6875 
L 25.875 0 
L 8.40625 0 
z
M 8.40625 75.984375 
L 25.875 75.984375 
L 25.875 61.71875 
L 8.40625 61.71875 
z
" id="DejaVuSans-Bold-69"/>
     <path d="M 52.59375 52.984375 
L 52.59375 38.71875 
Q 49.03125 41.15625 45.4375 42.328125 
Q 41.84375 43.5 37.984375 43.5 
Q 30.671875 43.5 26.59375 39.234375 
Q 22.515625 34.96875 22.515625 27.296875 
Q 22.515625 19.625 26.59375 15.34375 
Q 30.671875 11.078125 37.984375 11.078125 
Q 42.09375 11.078125 45.78125 12.296875 
Q 49.46875 13.53125 52.59375 15.921875 
L 52.59375 1.609375 
Q 48.484375 0.09375 44.265625 -0.65625 
Q 40.046875 -1.421875 35.796875 -1.421875 
Q 21 -1.421875 12.640625 6.171875 
Q 4.296875 13.765625 4.296875 27.296875 
Q 4.296875 40.828125 12.640625 48.40625 
Q 21 56 35.796875 56 
Q 40.09375 56 44.265625 55.25 
Q 48.4375 54.5 52.59375 52.984375 
z
" id="DejaVuSans-Bold-63"/>
     <path d="M 27.484375 70.21875 
L 27.484375 54.6875 
L 45.515625 54.6875 
L 45.515625 42.1875 
L 27.484375 42.1875 
L 27.484375 19 
Q 27.484375 15.1875 29 13.84375 
Q 30.515625 12.5 35.015625 12.5 
L 44 12.5 
L 44 0 
L 29 0 
Q 18.65625 0 14.328125 4.3125 
Q 10.015625 8.640625 10.015625 19 
L 10.015625 42.1875 
L 1.3125 42.1875 
L 1.3125 54.6875 
L 10.015625 54.6875 
L 10.015625 70.21875 
z
" id="DejaVuSans-Bold-74"/>
     <path id="DejaVuSans-Bold-20"/>
     <path d="M 1.515625 54.6875 
L 19 54.6875 
L 32.625 16.890625 
L 46.1875 54.6875 
L 63.71875 54.6875 
L 42.1875 0 
L 23 0 
z
" id="DejaVuSans-Bold-76"/>
     <path d="M 51.125 52.984375 
L 51.125 39.703125 
Q 45.515625 42.046875 40.28125 43.21875 
Q 35.0625 44.390625 30.421875 44.390625 
Q 25.4375 44.390625 23.015625 43.140625 
Q 20.609375 41.890625 20.609375 39.3125 
Q 20.609375 37.203125 22.4375 36.078125 
Q 24.265625 34.96875 29 34.421875 
L 32.078125 33.984375 
Q 45.515625 32.28125 50.140625 28.375 
Q 54.78125 24.46875 54.78125 16.109375 
Q 54.78125 7.375 48.328125 2.96875 
Q 41.890625 -1.421875 29.109375 -1.421875 
Q 23.6875 -1.421875 17.890625 -0.5625 
Q 12.109375 0.296875 6 2 
L 6 15.28125 
Q 11.234375 12.75 16.71875 11.46875 
Q 22.21875 10.203125 27.875 10.203125 
Q 33.015625 10.203125 35.59375 11.609375 
Q 38.1875 13.03125 38.1875 15.828125 
Q 38.1875 18.171875 36.40625 19.3125 
Q 34.625 20.453125 29.296875 21.09375 
L 26.21875 21.484375 
Q 14.546875 22.953125 9.859375 26.90625 
Q 5.171875 30.859375 5.171875 38.921875 
Q 5.171875 47.609375 11.125 51.796875 
Q 17.09375 56 29.390625 56 
Q 34.234375 56 39.546875 55.265625 
Q 44.875 54.546875 51.125 52.984375 
z
" id="DejaVuSans-Bold-73"/>
     <path d="M 10.203125 18.890625 
L 27.78125 18.890625 
L 27.78125 0 
L 10.203125 0 
z
" id="DejaVuSans-Bold-2e"/>
     <path d="M 53.421875 13.28125 
L 24.03125 13.28125 
L 19.390625 0 
L 0.484375 0 
L 27.484375 72.90625 
L 49.90625 72.90625 
L 76.90625 0 
L 58.015625 0 
z
M 28.71875 26.8125 
L 48.6875 26.8125 
L 38.71875 55.8125 
z
" id="DejaVuSans-Bold-41"/>
     <path d="M 7.8125 21.296875 
L 7.8125 54.6875 
L 25.390625 54.6875 
L 25.390625 49.21875 
Q 25.390625 44.78125 25.34375 38.0625 
Q 25.296875 31.34375 25.296875 29.109375 
Q 25.296875 22.515625 25.640625 19.609375 
Q 25.984375 16.703125 26.8125 15.375 
Q 27.875 13.671875 29.609375 12.734375 
Q 31.34375 11.8125 33.59375 11.8125 
Q 39.0625 11.8125 42.1875 16.015625 
Q 45.3125 20.21875 45.3125 27.6875 
L 45.3125 54.6875 
L 62.796875 54.6875 
L 62.796875 0 
L 45.3125 0 
L 45.3125 7.90625 
Q 41.359375 3.125 36.9375 0.84375 
Q 32.515625 -1.421875 27.203125 -1.421875 
Q 17.71875 -1.421875 12.765625 4.390625 
Q 7.8125 10.203125 7.8125 21.296875 
z
" id="DejaVuSans-Bold-75"/>
     <path d="M 32.90625 24.609375 
Q 27.4375 24.609375 24.671875 22.75 
Q 21.921875 20.90625 21.921875 17.28125 
Q 21.921875 13.96875 24.140625 12.078125 
Q 26.375 10.203125 30.328125 10.203125 
Q 35.25 10.203125 38.625 13.734375 
Q 42 17.28125 42 22.609375 
L 42 24.609375 
z
M 59.625 31.203125 
L 59.625 0 
L 42 0 
L 42 8.109375 
Q 38.484375 3.125 34.078125 0.84375 
Q 29.6875 -1.421875 23.390625 -1.421875 
Q 14.890625 -1.421875 9.59375 3.53125 
Q 4.296875 8.5 4.296875 16.40625 
Q 4.296875 26.03125 10.90625 30.515625 
Q 17.53125 35.015625 31.6875 35.015625 
L 42 35.015625 
L 42 36.375 
Q 42 40.53125 38.71875 42.453125 
Q 35.453125 44.390625 28.515625 44.390625 
Q 22.90625 44.390625 18.0625 43.265625 
Q 13.234375 42.140625 9.078125 39.890625 
L 9.078125 53.21875 
Q 14.703125 54.59375 20.359375 55.296875 
Q 26.03125 56 31.6875 56 
Q 46.484375 56 53.046875 50.171875 
Q 59.625 44.34375 59.625 31.203125 
z
" id="DejaVuSans-Bold-61"/>
     <path d="M 8.40625 75.984375 
L 25.875 75.984375 
L 25.875 0 
L 8.40625 0 
z
" id="DejaVuSans-Bold-6c"/>
     <path d="M 59.90625 70.609375 
L 59.90625 55.171875 
Q 53.90625 57.859375 48.1875 59.21875 
Q 42.484375 60.59375 37.40625 60.59375 
Q 30.671875 60.59375 27.4375 58.734375 
Q 24.21875 56.890625 24.21875 52.984375 
Q 24.21875 50.046875 26.390625 48.40625 
Q 28.5625 46.78125 34.28125 45.609375 
L 42.28125 44 
Q 54.4375 41.546875 59.5625 36.5625 
Q 64.703125 31.59375 64.703125 22.40625 
Q 64.703125 10.359375 57.546875 4.46875 
Q 50.390625 -1.421875 35.6875 -1.421875 
Q 28.765625 -1.421875 21.78125 -0.09375 
Q 14.796875 1.21875 7.8125 3.8125 
L 7.8125 19.671875 
Q 14.796875 15.96875 21.3125 14.078125 
Q 27.828125 12.203125 33.890625 12.203125 
Q 40.046875 12.203125 43.3125 14.25 
Q 46.578125 16.3125 46.578125 20.125 
Q 46.578125 23.53125 44.359375 25.390625 
Q 42.140625 27.25 35.5 28.71875 
L 28.21875 30.328125 
Q 17.28125 32.671875 12.21875 37.796875 
Q 7.171875 42.921875 7.171875 51.609375 
Q 7.171875 62.5 14.203125 68.359375 
Q 21.234375 74.21875 34.421875 74.21875 
Q 40.4375 74.21875 46.78125 73.3125 
Q 53.125 72.40625 59.90625 70.609375 
z
" id="DejaVuSans-Bold-53"/>
     <path d="M 1.21875 54.6875 
L 18.703125 54.6875 
L 33.40625 17.578125 
L 45.90625 54.6875 
L 63.375 54.6875 
L 40.375 -5.171875 
Q 36.921875 -14.3125 32.296875 -17.9375 
Q 27.6875 -21.578125 20.125 -21.578125 
L 10.015625 -21.578125 
L 10.015625 -10.109375 
L 15.484375 -10.109375 
Q 19.921875 -10.109375 21.9375 -8.6875 
Q 23.96875 -7.28125 25.09375 -3.609375 
L 25.59375 -2.09375 
z
" id="DejaVuSans-Bold-79"/>
    </defs>
    <g style="fill:#262626;" transform="translate(446.883438 80.4)scale(0.14 -0.14)">
     <use xlink:href="#DejaVuSans-Bold-50"/>
     <use x="73.291016" xlink:href="#DejaVuSans-Bold-72"/>
     <use x="122.607422" xlink:href="#DejaVuSans-Bold-65"/>
     <use x="190.429688" xlink:href="#DejaVuSans-Bold-64"/>
     <use x="262.011719" xlink:href="#DejaVuSans-Bold-69"/>
     <use x="296.289062" xlink:href="#DejaVuSans-Bold-63"/>
     <use x="355.566406" xlink:href="#DejaVuSans-Bold-74"/>
     <use x="403.369141" xlink:href="#DejaVuSans-Bold-65"/>
     <use x="471.191406" xlink:href="#DejaVuSans-Bold-64"/>
     <use x="542.773438" xlink:href="#DejaVuSans-Bold-20"/>
     <use x="577.587891" xlink:href="#DejaVuSans-Bold-76"/>
     <use x="642.773438" xlink:href="#DejaVuSans-Bold-73"/>
     <use x="702.294922" xlink:href="#DejaVuSans-Bold-2e"/>
     <use x="740.283203" xlink:href="#DejaVuSans-Bold-20"/>
     <use x="775.097656" xlink:href="#DejaVuSans-Bold-41"/>
     <use x="852.490234" xlink:href="#DejaVuSans-Bold-63"/>
     <use x="911.767578" xlink:href="#DejaVuSans-Bold-74"/>
     <use x="959.570312" xlink:href="#DejaVuSans-Bold-75"/>
     <use x="1030.761719" xlink:href="#DejaVuSans-Bold-61"/>
     <use x="1098.242188" xlink:href="#DejaVuSans-Bold-6c"/>
     <use x="1132.519531" xlink:href="#DejaVuSans-Bold-20"/>
     <use x="1167.333984" xlink:href="#DejaVuSans-Bold-53"/>
     <use x="1239.355469" xlink:href="#DejaVuSans-Bold-61"/>
     <use x="1306.835938" xlink:href="#DejaVuSans-Bold-6c"/>
     <use x="1341.113281" xlink:href="#DejaVuSans-Bold-61"/>
     <use x="1408.59375" xlink:href="#DejaVuSans-Bold-72"/>
     <use x="1457.910156" xlink:href="#DejaVuSans-Bold-79"/>
    </g>
   </g>
  </g>
 </g>
 <defs>
  <clipPath id="pf8e7449104">
   <rect height="543.6" width="837" x="135" y="86.4"/>
  </clipPath>
 </defs>
</svg>
